<?xml version="1.0" encoding="utf-8"?>
<!-- Generator: Adobe Illustrator 21.1.0, SVG Export Plug-In . SVG Version: 6.00 Build 0)  -->
<svg version="1.1" id="Layer_1" xmlns="http://www.w3.org/2000/svg" xmlns:xlink="http://www.w3.org/1999/xlink" x="0px" y="0px"
	 viewBox="0 0 1430.9 998.4" style="enable-background:new 0 0 1430.9 998.4;" xml:space="preserve">
<style type="text/css">
	.st0{fill:#F2F4F6;}
</style>
<g>
	<path class="st0" d="M148.9,805.6l83.9-133.1c41.2-65.4,45.3-76.2,31.3-114.3c-11-30-25.1-37-73.5-19.2
		c-48.8,18-93.3,43-100.2,47.8L46.6,507c23-16,72.7-39.5,113.4-54.4c121.6-44.7,162-30.7,197,64.4c22.6,61.6,17,85.6-38.6,173
		L278.8,752l155.7-57.3l28.8,78.3L175.9,878.8L148.9,805.6z"/>
	<path class="st0" d="M431.1,572.4c-54.8-149.1-25.3-210.2,95.7-254.7c120.6-44.4,181.8-17.8,236.6,131.3
		C818.2,598,789.1,660.1,668,704.7C547.5,749,485.9,721.4,431.1,572.4z M671,507.2c-4.5-12.2-14.2-38.7-15-40.7
		c-26.4-71.7-46.8-83.3-99.2-64c-52.4,19.3-59.8,39.9-33.4,111.6c0.7,2,10.5,28.5,15,40.7c26.4,71.7,47.9,86.3,100.3,67.1
		C691.1,602.6,697.4,578.9,671,507.2z"/>
	<path class="st0" d="M800.9,315.6L749,334.7l-29.8-80.9L870.9,198l137.8,374.4l-99.7,36.7L800.9,315.6z"/>
	<path class="st0" d="M988.6,367.2c-0.2-0.5-0.4-1-0.6-1.5c-27.1-73.8-33.8-116.9-7.8-157.7c22.4-34.8,95.7-82,207.7-134.2
		l39.9,77.1c-114.1,58.7-152.2,80.8-163.2,101.1c-7.8,13.3-0.8,29.2,6.5,49c8.7-6.1,60.7-32.7,90.2-43.6
		c116-42.7,133-37.4,171.7,67.9c28.6,77.8,14.9,128.5-115.8,176.6C1074.8,554.4,1043.4,516.3,988.6,367.2z M1240.4,362.4
		c-13.8-37.6-20-46.4-62.2-30.8c-34.6,12.7-64.2,26.5-82.2,37.2c0,0,5.8,15.8,6.2,16.8c18.7,50.9,35.4,63.2,89.3,43.4
		C1238.3,411.7,1252.6,395.5,1240.4,362.4z"/>
</g>
</svg>
