<svg id="Layer_1" data-name="Layer 1" xmlns="http://www.w3.org/2000/svg" viewBox="0 0 1439.45 512.1"><defs><style>.cls-1{fill:#a6ce39;}</style></defs><title>2017</title><path class="cls-1" d="M-46.28,534.71,97.17,415.44c70.48-58.62,79.21-69.4,79.21-119.94,0-39.75-12.47-53.91-71.72-53.91-59.87,0-117.88,10.11-127.23,12.8L-38.17,142.55C-7,133.79,56,127.72,105.9,127.72,255,127.72,293,161.41,293,287.42c0,81.53-15.59,107.14-110.39,185.3L115.26,528H306.1V631.74H-46.28Z" transform="translate(46.28 -127.72)"/><path class="cls-1" d="M351,383.77c0-197.43,56.13-256,204.57-256,147.81,0,203.32,57.27,203.32,254.7s-56.13,257.4-204.57,257.4C406.51,639.82,351,581.2,351,383.77Zm285,27V356.82c0-95-17.46-117.24-81.7-117.24s-80.46,20.89-80.46,115.9v53.91c0,95,17.46,121.29,81.7,121.29S636,505.73,636,410.72Z" transform="translate(46.28 -127.72)"/><path class="cls-1" d="M852.44,242.95H788.82V135.81H974.68V631.74H852.44Z" transform="translate(46.28 -127.72)"/><path class="cls-1" d="M1269.68,249.68h-247V135.81h370.47V252.38L1218.54,631.74H1083.82Z" transform="translate(46.28 -127.72)"/></svg>