<?xml version="1.0" encoding="utf-8"?>
<!-- Generator: Adobe Illustrator 21.1.0, SVG Export Plug-In . SVG Version: 6.00 Build 0)  -->
<svg version="1.1" id="Layer_1" xmlns="http://www.w3.org/2000/svg" xmlns:xlink="http://www.w3.org/1999/xlink" x="0px" y="0px"
	 viewBox="0 0 1600 600" style="enable-background:new 0 0 1600 600;" xml:space="preserve">
<style type="text/css">
	.st0{clip-path:url(#SVGID_2_);}
	.st1{fill:#F2F4F6;}
</style>
<g>
	<defs>
		<rect id="SVGID_1_" width="1600" height="600"/>
	</defs>
	<clipPath id="SVGID_2_">
		<use xlink:href="#SVGID_1_"  style="overflow:visible;"/>
	</clipPath>
	<g class="st0">
		<path class="st1" d="M-2603.5,1435.3l162.5-59.8c94.1-34.6,148.9-34,191.6,82s0.4,154-92.7,188.3c-33.7,12.4-46.6,17.1-65.4,24.1
			l34.8,94.6l-96.6,35.5L-2603.5,1435.3z M-2369.9,1568.8c21.3-7.8,44.4-18.6,23.8-74.6c-20.6-56-45.9-48.4-66.7-40.7
			c-16.4,6-65.4,24.1-65.4,24.1l42.5,115.4C-2415,1585.4-2381.8,1573.2-2369.9,1568.8z"/>
		<path class="st1" d="M-2090.3,1660.6l-98.1,36.1l7.6-419.7l89.7-33l277.8,314.6l-103.1,37.9l-36.9-43.8l-137.2,50.5
			L-2090.3,1660.6z M-2091,1389.6l0.1,127.1l81.8-30.1L-2091,1389.6z"/>
		<path class="st1" d="M-1927.2,1186.5l162.5-59.8c94.1-34.6,148.9-34,191.6,82c42.7,115.9,0.4,154-92.7,188.3
			c-33.7,12.4-46.6,17.1-65.4,24.1l34.8,94.6l-96.6,35.5L-1927.2,1186.5z M-1693.6,1319.9c21.3-7.8,44.4-18.6,23.8-74.6
			c-20.6-56-45.9-48.4-66.7-40.7c-16.4,6-65.4,24.1-65.4,24.1l42.5,115.4C-1738.7,1336.5-1705.5,1324.3-1693.6,1319.9z"/>
		<path class="st1" d="M-1598.2,1065.5l261.1-96.1l30.8,83.7l-164,60.3l20.6,56l132.3-48.7l30.8,83.7l-132.3,48.7l22.1,60l164-60.3
			l29.9,81.3l-261.1,96.1L-1598.2,1065.5z"/>
		<path class="st1" d="M-840.2,1200.6l-110.5,40.7l-106-74.1c-11.9,4.4-39.1,14.4-53,19.5l36.6,99.6l-96.1,35.4L-1303.4,957
			l157.6-58c94.1-34.6,148-36.5,190.7,79.5c26.4,71.8,18,107-14.7,131.4L-840.2,1200.6z M-1076.5,1087.3
			c31.7-11.7,41.3-27,24.7-72.1c-17.1-46.6-36.6-49-65.8-38.2c-16.4,6-60.9,22.4-60.9,22.4l40.7,110.5
			C-1117.2,1102.2-1088.4,1091.7-1076.5,1087.3z"/>
		<path class="st1" d="M-952.1,827.7l97.6-35.9l134.2,364.7l-97.6,35.9L-952.1,827.7z"/>
		<path class="st1" d="M-811.4,776l97.6-35.9l204,138.7L-579,690.5l93.2-34.3l134.2,364.7l-82.2,30.3l-228.3-157.3l78.2,212.6
			l-93.2,34.3L-811.4,776z"/>
		<path class="st1" d="M-230.7,562.3l106-39l-82.1,201.8L20.4,884L-93,925.7l-152.1-106.1c0,0-10.7,25.9-10.5,26.4l45.2,122.9
			l-98.1,36.1l-134.2-364.7l98.1-36.1l46.1,125.4L-230.7,562.3z"/>
		<path class="st1" d="M-89,510.2l261.1-96.1l30.8,83.7L39,558.2l20.6,56l132.3-48.7l30.8,83.7L90.4,697.9l22.1,60l164-60.3
			l29.9,81.3L45.2,874.8L-89,510.2z"/>
		<path class="st1" d="M669,645.3L558.5,686l-106-74.1c-11.9,4.4-39.1,14.4-53,19.5l36.6,99.6L340,766.4L205.8,401.7l157.6-58
			c94.1-34.6,148-36.5,190.7,79.5c26.4,71.8,18,107-14.7,131.4L669,645.3z M432.7,532c31.7-11.7,41.3-27,24.7-72.1
			c-17.1-46.6-36.6-49-65.8-38.2c-16.3,6-60.9,22.4-60.9,22.4l40.7,110.5C392,547,420.8,536.4,432.7,532z"/>
		<path class="st1" d="M560.6,271.2l85.7-31.5l29.4,79.8L590,350.9L560.6,271.2z M777.5,605.4l-98.1,36.1l7.6-419.7l89.7-33
			l277.8,314.6l-103.1,37.9l-36.9-43.8l-137.2,50.5L777.5,605.4z M776.9,334.5l0.1,127.1l81.8-30.1L776.9,334.5z M819.2,176
			l85.7-31.5l29.4,79.8l-85.7,31.5L819.2,176z"/>
		<path class="st1" d="M1151.6,333.3L921.3,138.5l105.5-38.8l140,119l29.5-181.3l100.6-37L1248,295.6l44.3,120.4l-97.1,35.7
			L1151.6,333.3z"/>
		<path class="st1" d="M1426.7,357.6l-14.7-85.7c13-1.4,93.7-20.4,126.9-32.6c46.1-17,52.2-24.8,42.9-50.1
			c-8.9-24.3-16.6-23.7-77.4-13.1c-112.5,20-141.4,13.2-172.6-71.5c-30.6-83.2,13.3-127.5,100.5-159.6
			c42.1-15.5,119.2-35.4,139.7-36.2l14.8,86.2c-31.9,6.7-80.5,16.7-124.6,32.9c-35.2,12.9-39.4,22.9-32.1,42.7
			c9.1,24.8,16.6,23.7,70.4,14c120.4-21.2,148.6-18.1,180.7,69.1c30.3,82.2-4.6,126.6-113.6,166.7
			C1503.7,343.8,1443.3,355.4,1426.7,357.6z"/>
	</g>
</g>
</svg>
