<svg id="Layer_1" data-name="Layer 1" xmlns="http://www.w3.org/2000/svg" xmlns:xlink="http://www.w3.org/1999/xlink" viewBox="0 0 309.96 106.98"><defs><style>.cls-1{fill:none;}.cls-2{font-size:22px;fill:#68ad45;font-family:Stainless-Black, Stainless;}.cls-3{letter-spacing:-0.01em;}.cls-4{letter-spacing:0em;}.cls-5{letter-spacing:-0.02em;}.cls-6{clip-path:url(#clip-path);}.cls-7{fill:url(#linear-gradient);}.cls-8{clip-path:url(#clip-path-2);}.cls-9{fill:url(#linear-gradient-2);}.cls-10{clip-path:url(#clip-path-3);}.cls-11{fill:url(#linear-gradient-3);}.cls-12{clip-path:url(#clip-path-4);}.cls-13{fill:url(#linear-gradient-4);}.cls-14{clip-path:url(#clip-path-5);}.cls-15{fill:#edf5e9;}.cls-16{clip-path:url(#clip-path-6);}.cls-17{fill:url(#linear-gradient-5);}.cls-18{clip-path:url(#clip-path-7);}.cls-19{fill:url(#linear-gradient-6);}.cls-20{clip-path:url(#clip-path-8);}.cls-21{fill:url(#linear-gradient-7);}.cls-22{clip-path:url(#clip-path-9);}.cls-23{fill:url(#linear-gradient-8);}.cls-24{clip-path:url(#clip-path-10);}.cls-25{fill:url(#linear-gradient-9);}.cls-26{fill:#03522f;}.cls-27{fill:#72be45;}.cls-28{clip-path:url(#clip-path-12);}.cls-29{fill:url(#linear-gradient-10);}.cls-30{clip-path:url(#clip-path-13);}.cls-31{fill:url(#linear-gradient-11);}.cls-32{clip-path:url(#clip-path-14);}.cls-33{fill:url(#linear-gradient-12);}.cls-34{clip-path:url(#clip-path-15);}.cls-35{fill:#d6de27;}.cls-36{fill:#b2d236;}.cls-37{fill:#010101;}</style><clipPath id="clip-path" transform="translate(12.24 13.08)"><path class="cls-1" d="M80.22,31.61c-11.58,29-30.48,34.56-41.82,35,6,0,29.66-1.73,45.76-32.72C91.33,20.14,105,9.81,105.64,20.85a28.58,28.58,0,0,0,.73-5.42c0-.11,0-.23,0-.34s0-.26-.06-.39l0-.11c-.49-2.67-1.57-4.51-3.05-5.52l-.07,0c-.15-.1-.3-.18-.46-.26a5.19,5.19,0,0,0-2.31-.52c-5.6,0-13.89,7.73-20.13,23.36"/></clipPath><linearGradient id="linear-gradient" x1="-502.62" y1="432.75" x2="-501.62" y2="432.75" gradientTransform="matrix(-16.32, 0, 0, 16.32, -8087.94, -7026.93)" gradientUnits="userSpaceOnUse"><stop offset="0" stop-color="#017948"/><stop offset="1" stop-color="#e1e33f"/></linearGradient><clipPath id="clip-path-2" transform="translate(12.24 13.08)"><path class="cls-1" d="M34.95,66.78l.06,0h0l0,0h0"/></clipPath><linearGradient id="linear-gradient-2" x1="2484.6" y1="-15187.05" x2="2485.6" y2="-15187.05" gradientTransform="matrix(0, -0.04, -0.04, 0, -535.76, 160.2)" gradientUnits="userSpaceOnUse"><stop offset="0" stop-color="#017948"/><stop offset="0.6" stop-color="#b1d136"/><stop offset="0.95" stop-color="#b1d136"/><stop offset="1" stop-color="#b1d136"/></linearGradient><clipPath id="clip-path-3" transform="translate(12.24 13.08)"><path class="cls-1" d="M1.46,38c.42,1.47.93,3,1.54,4.64A37.28,37.28,0,0,0,29,65.9l-.12,0a17.21,17.21,0,0,0,2.3.44A31.18,31.18,0,0,1,10.16,46.47a54.6,54.6,0,0,1-1.81-6.16C6,39.6,3.72,38.9,1.46,38Z"/></clipPath><linearGradient id="linear-gradient-3" x1="-467.51" y1="423.38" x2="-466.51" y2="423.38" gradientTransform="matrix(0, -28.12, -28.12, 0, 11923.79, -13074.58)" xlink:href="#linear-gradient-2"/><clipPath id="clip-path-4" transform="translate(12.24 13.08)"><path class="cls-1" d="M10.16,46.47a31.06,31.06,0,0,0,21,19.82A33.13,33.13,0,0,0,41.94,66c-8.07.18-17.51-3.23-22.94-16.33A37.26,37.26,0,0,1,17.13,44a80.72,80.72,0,0,1-8.57-2.83c.41,1.66.94,3.43,1.6,5.3"/></clipPath><linearGradient id="linear-gradient-4" x1="-471.28" y1="453.41" x2="-470.28" y2="453.41" gradientTransform="matrix(0, 64.2, 64.2, 0, -29083.02, 30273.49)" gradientUnits="userSpaceOnUse"><stop offset="0" stop-color="#ccdb31"/><stop offset="0.55" stop-color="#ccdb31"/><stop offset="1" stop-color="#017948"/></linearGradient><clipPath id="clip-path-5" transform="translate(12.24 13.08)"><rect class="cls-1" width="231" height="66.79"/></clipPath><clipPath id="clip-path-6" transform="translate(12.24 13.08)"><path class="cls-1" d="M30.69,66.22c-1.13-.18-1.77-.35-1.78-.35s.76.21,2.11.41c7.62,1.17,34.06,2.34,48.91-34A41,41,0,0,1,74.13,30C62.26,68.35,37.52,67.29,30.69,66.22"/></clipPath><linearGradient id="linear-gradient-5" x1="-480.06" y1="446.85" x2="-479.06" y2="446.85" gradientTransform="matrix(-48.77, 0, 0, 48.77, -23333.28, -21741.74)" gradientUnits="userSpaceOnUse"><stop offset="0" stop-color="#017948"/><stop offset="1" stop-color="#016538"/></linearGradient><clipPath id="clip-path-7" transform="translate(12.24 13.08)"><path class="cls-1" d="M8.56,41.17A80.72,80.72,0,0,0,17.13,44C12.24,23.49,34.48,19.68,56.58,24.39c-7.09-2.26-14.93-4.45-22.37-6a60.77,60.77,0,0,0-7-.44c-14,0-22.84,6.11-18.62,23.24"/></clipPath><linearGradient id="linear-gradient-6" x1="-448.03" y1="442.32" x2="-447.03" y2="442.32" gradientTransform="matrix(29.74, 0, 0, -29.74, 13336.12, 13183.77)" gradientUnits="userSpaceOnUse"><stop offset="0" stop-color="#ccdb31"/><stop offset="0.04" stop-color="#ccdb31"/><stop offset="1" stop-color="#045230"/></linearGradient><clipPath id="clip-path-8" transform="translate(12.24 13.08)"><path class="cls-1" d="M5.05,18.62C.32,22.5-.11,28.09.1,31.27l0,.58A40.83,40.83,0,0,0,1.46,38C3.72,38.9,6,39.6,8.35,40.31c-.05-.23-.09-.45-.14-.68s-.07-.35-.11-.53c-.08-.42-.16-.84-.22-1.25,0-.16,0-.32-.07-.47q-.09-.62-.15-1.23c0-.14,0-.27,0-.41,0-.41-.07-.81-.09-1.2,0-.12,0-.23,0-.35,0-.4,0-.79,0-1.17,0-.1,0-.2,0-.3,0-.38,0-.76.06-1.12,0-.1,0-.19,0-.29,0-.36.07-.71.13-1,0-.11,0-.21.06-.32.05-.31.11-.63.18-.93s.08-.29.12-.44.13-.49.21-.72.18-.5.27-.75.08-.23.13-.33c3.29-7.89,13.12-9.85,25.5-8.41a93.5,93.5,0,0,0-18.33-2.32c-4.77,0-8.58.75-10.8,2.57"/></clipPath><linearGradient id="linear-gradient-7" x1="-487.7" y1="447.11" x2="-486.7" y2="447.11" gradientTransform="matrix(-30.15, 0, 0, 30.15, -14666.03, -13452.94)" gradientUnits="userSpaceOnUse"><stop offset="0" stop-color="#045230"/><stop offset="1" stop-color="#b1d136"/></linearGradient><clipPath id="clip-path-9" transform="translate(12.24 13.08)"><path class="cls-1" d="M37.25,19l.28.07h0Z"/></clipPath><linearGradient id="linear-gradient-8" x1="-4693.22" y1="927.57" x2="-4692.22" y2="927.57" gradientTransform="matrix(-0.14, 0, 0, 0.14, -622.25, -111.32)" xlink:href="#linear-gradient-7"/><clipPath id="clip-path-10" transform="translate(12.24 13.08)"><path class="cls-1" d="M34.46,18.43l2.3.5Z"/></clipPath><linearGradient id="linear-gradient-9" x1="-1043.94" y1="510.51" x2="-1042.94" y2="510.51" gradientTransform="matrix(-1.03, 0, 0, 1.03, -1040.29, -507.82)" xlink:href="#linear-gradient-7"/><clipPath id="clip-path-12" transform="translate(12.24 13.08)"><path class="cls-1" d="M56.51,24.37l-.21-.07.21.07m-2.33-.73,2.12.66-2.11-.66Z"/></clipPath><linearGradient id="linear-gradient-10" x1="249.87" y1="362.65" x2="250.87" y2="362.65" gradientTransform="matrix(0.83, 0, 0, -0.83, -151.87, 324.06)" gradientUnits="userSpaceOnUse"><stop offset="0" stop-color="#edf5e9"/><stop offset="1" stop-color="#045230"/></linearGradient><clipPath id="clip-path-13" transform="translate(12.24 13.08)"><path class="cls-1" d="M16.47,39.28c0,.1,0,.21,0,.31s0,.34,0,.5,0,.3,0,.45,0,.3,0,.45,0,.36.07.55l.06.4c0,.21.07.43.11.65l.06.34c.06.28.12.57.18.85l0,.15c2.46.65,4.93,1.34,7.44,2-4.49-19.35,17.69-25.39,39-19.18-2.21-.77-4.55-1.55-7-2.33a77.83,77.83,0,0,0-16-1.81c-13.75,0-24.54,4.74-24.12,16.69"/></clipPath><linearGradient id="linear-gradient-11" x1="-449.93" y1="442.55" x2="-448.93" y2="442.55" gradientTransform="matrix(32.86, 0, 0, -32.86, 14805.39, 14576.28)" xlink:href="#linear-gradient-10"/><clipPath id="clip-path-14" transform="translate(12.24 13.08)"><path class="cls-1" d="M74.3,29.49l-.16.52a41,41,0,0,0,5.81,2.29l.29-.69c9.72-24.32,24.4-29.52,26.15-16.19a43.54,43.54,0,0,0-.08-4.94C105.28,3.88,101.62,0,96.93,0c-7,0-16.28,8.57-22.63,29.49"/></clipPath><linearGradient id="linear-gradient-12" x1="-325.76" y1="478.44" x2="-324.76" y2="478.44" gradientTransform="matrix(4.09, 0, 0, -4.09, 1435.63, 1971.83)" xlink:href="#linear-gradient-5"/><clipPath id="clip-path-15" transform="translate(12.24 13.08)"><rect class="cls-1" width="231" height="66.79"/></clipPath></defs><title>paperinkerays-logo</title><text class="cls-2" transform="translate(258.24 77.37)"><tspan class="cls-3">2</tspan><tspan class="cls-4" x="13.73" y="0">0</tspan><tspan class="cls-5" x="29.48" y="0">1</tspan><tspan x="37.33" y="0">7</tspan></text><g class="cls-6"><rect class="cls-7" x="30.61" y="-1.39" width="83.55" height="77.73" transform="translate(3.9 39.31) rotate(-19.44)"/></g><g class="cls-8"><rect class="cls-9" x="34.95" y="66.77" width="0.06" height="0.04" transform="translate(-14.85 37.08) rotate(-27.78)"/></g><g class="cls-10"><rect class="cls-11" x="-4.06" y="31.91" width="40.8" height="40.52" transform="translate(-15.94 33.54) rotate(-37.15)"/></g><g class="cls-12"><rect class="cls-13" x="5.44" y="36.67" width="39.63" height="34.64" transform="translate(-3.09 23.42) rotate(-17.85)"/></g><g class="cls-14"><path class="cls-15" d="M41.92,66c.9-.18,1.93-.49,2.87-.76-6.78.17-14.33-3.31-19-15.29a30.08,30.08,0,0,1-1.26-4.06c-2.51-.61-5-1.31-7.45-2A37.15,37.15,0,0,0,19,49.63C24.43,62.73,33.84,66.2,41.92,66" transform="translate(12.24 13.08)"/></g><g class="cls-16"><rect class="cls-17" x="23.1" y="17.4" width="62.65" height="63.82" transform="translate(-6.28 70.88) rotate(-48.81)"/></g><g class="cls-18"><rect class="cls-19" x="2.77" y="3.28" width="55.38" height="55.38" transform="translate(-0.73 43.69) rotate(-45)"/></g><g class="cls-20"><rect class="cls-21" x="-3.67" y="7.48" width="41.41" height="41.41" transform="translate(-2.69 33.38) rotate(-45)"/></g><g class="cls-22"><rect class="cls-23" x="37.27" y="18.94" width="0.27" height="0.27" transform="translate(9.71 45.12) rotate(-45)"/></g><g class="cls-24"><rect class="cls-25" x="34.62" y="17.69" width="1.98" height="1.98" transform="translate(9.47 43.73) rotate(-45)"/></g><g class="cls-14"><path class="cls-26" d="M77.82,32.21c-.81-.31-1.63-.64-2.47-1l-1.41-.58-.69,2.06a8.82,8.82,0,0,1,6,1.26l.41-1-1.84-.76" transform="translate(12.24 13.08)"/><path class="cls-27" d="M83.42,34.55c-.66-.3-2.17-.93-3.76-1.59l-.41,1a7.56,7.56,0,0,1,3,3.51l1.54-2.75-.35-.15" transform="translate(12.24 13.08)"/></g><g class="cls-28"><rect class="cls-29" x="54.26" y="22.92" width="2.17" height="2.17" transform="translate(11.48 59.25) rotate(-45)"/></g><g class="cls-30"><rect class="cls-31" x="14.04" y="7.43" width="51.55" height="51.55" transform="translate(0.43 50.95) rotate(-45)"/></g><g class="cls-32"><rect class="cls-33" x="68.82" y="-5.32" width="42.94" height="42.94" transform="translate(13.88 52.78) rotate(-25.02)"/></g><g class="cls-34"><path class="cls-35" d="M105.28,26.74C103,34.77,94,38.44,77.78,32.19c2.11.87,4.71,1.95,5.64,2.36,8.21,3.67,18.54,5.73,22.05-8.47-.06.22-.12.44-.18.66" transform="translate(12.24 13.08)"/><path class="cls-36" d="M106.26,10c2.18,27.43-19.35,25-30.64,20.3C37.75,14.36-2.51,4,.12,31.62c-.26-3.1,0-9,4.93-13,10.22-8.37,54.39,5.8,70.29,12.59,17.77,7.59,27.51,3.95,29.93-4.47a38.38,38.38,0,0,0,1-16.76" transform="translate(12.24 13.08)"/></g><g class="cls-14"><path class="cls-37" d="M88,48.82c0-.51-.16-1.21.69-1.21H93c4,0,6,2.21,6.05,5.14S96.9,58,93.06,58H89.78c0,.58,0,3.46,0,3.62,0,.49.25,1.18-.6,1.18h-.62c-.62,0-.65-.6-.62-1.07,0-1.16,0-12.55,0-12.91m5,7.75c2.81,0,4.2-1.52,4.2-3.73s-1.36-3.77-4.2-3.77H89.76c0,1,0,6.43,0,7.5Z" transform="translate(12.24 13.08)"/><path class="cls-37" d="M104.45,55.52a10.17,10.17,0,0,1,3.55.65V54.8c0-2-1.16-2.93-3-2.93a6.91,6.91,0,0,0-3.6,1c-.07,0-.92-1-.13-1.63a6.5,6.5,0,0,1,3.91-1c3,0,4.58,1.76,4.53,4.51,0,2-.07,5.85,0,7.1,0,.67.25,1.12-.89,1.12-.92,0-.94-1-.8-1.94h-.11a5.76,5.76,0,0,1-4,1.94A3.52,3.52,0,0,1,100,59.25c0-2.26,1.7-3.68,4.4-3.73m-.11,6.05A4.19,4.19,0,0,0,108,59.45V57.39a9.41,9.41,0,0,0-3.15-.51c-1.74,0-3,.83-3,2.32a2.26,2.26,0,0,0,2.5,2.37" transform="translate(12.24 13.08)"/><path class="cls-37" d="M112.82,51.48c0-.38-.2-.94.18-1.09a3.06,3.06,0,0,1,.69-.09c.85,0,.92.94.8,2.1h.13a4.24,4.24,0,0,1,3.78-2.1c2.86,0,4.78,2.63,4.78,6.61,0,3.73-2.17,6.12-4.71,6.12a4.11,4.11,0,0,1-3.8-2.32h-.16c0,1.68,0,4.13,0,4.64,0,.74-.22.8-.67.8h-.49c-.49,0-.69-.2-.67-.78,0-.42.2-10.27.11-13.89m5.34,10.07c1.7,0,3.21-1.5,3.21-4.6s-1.34-5.18-3.46-5.18a3.64,3.64,0,0,0-3.4,3.89v2.72c.2.65,1.3,3.17,3.64,3.17" transform="translate(12.24 13.08)"/><path class="cls-37" d="M130.4,50.29a4.44,4.44,0,0,1,4.69,4.44c0,1.94-.4,2.08-1.05,2.08h-7.32l0,.07c0,2.46,1.18,4.69,4,4.69a5.7,5.7,0,0,0,3.42-1.21,1,1,0,0,1,.47.49.83.83,0,0,1-.22,1.05A6.21,6.21,0,0,1,130.64,63c-4,0-5.72-2.75-5.72-6.43s2.05-6.3,5.47-6.3m2.9,5.22s0-.4,0-.78a2.78,2.78,0,0,0-3-3,3.73,3.73,0,0,0-3.62,3.75Z" transform="translate(12.24 13.08)"/><path class="cls-37" d="M137.66,59.87c0-1.9,0-5,0-6.92,0-.58,0-1.18,0-1.43,0-.74-.09-1.23.78-1.23s1,.47.92,2.28h.18a3.29,3.29,0,0,1,3.08-2.28,2.52,2.52,0,0,1,2.73,2.77c0,.94-.29,1.23-1.14,1.23s-.6-.27-.6-1a1.42,1.42,0,0,0-1.52-1.56c-1.5,0-2.52,2.17-2.66,3.48,0,1.79-.07,4.4,0,6.41,0,.56.22,1.14-.58,1.14h-.56c-.58,0-.67-.47-.65-1,0-.27,0-1.16,0-1.88" transform="translate(12.24 13.08)"/><path class="cls-37" d="M147.44,47.57c0-1,.45-1.21,1.07-1.21s1.14.13,1.16,1.21-.47,1.16-1.07,1.16-1.14-.11-1.16-1.16m.16,11.88c0-2.61,0-6.52,0-7.95,0-.49-.13-1,.76-1s1.07.16,1,.8c-.11,2.93-.07,6.65-.07,8.49,0,.83,0,1.59,0,1.85,0,.71,0,1.14-.6,1.14h-.54c-.67,0-.69-.51-.67-1.07s0-1.39,0-2.28" transform="translate(12.24 13.08)"/><path class="cls-37" d="M152.86,59.45c0-2.61,0-7.64,0-8.17s-.18-1,.71-1,1.1.54,1.1,1.14c0,.31,0,.72,0,1.16h.16a4.6,4.6,0,0,1,4-2.3c3,0,4.44,1.9,4.42,4.8,0,1.83-.09,4.38-.09,6.88,0,.51.2,1-.74,1s-1.07-.47-1.07-.87c0-2.17.07-4.51.07-7.08,0-1.83-.94-3.31-2.88-3.31a4.48,4.48,0,0,0-3.93,3c0,1.61,0,3.91,0,5.07,0,.83,0,1.72,0,1.88,0,.6,0,1.12-.6,1.12h-.58c-.65,0-.65-.62-.62-1s.07-1.41.07-2.3" transform="translate(12.24 13.08)"/><path class="cls-37" d="M166.35,47.88c0-.56,0-.94.74-.94.94,0,1.07.42,1.07,1s-.07,3.62-.11,4.73h.18a4.44,4.44,0,0,1,4.18-2.37c2.48,0,4.13,1.59,4.13,3.73,0,2.9-3.15,3.68-3.15,3.68.33.69,1.94,2.84,2.93,4.18a4.57,4.57,0,0,0,.47.56s-.18.58-1.07.58a1.45,1.45,0,0,1-1.25-.6c-.69-.87-2.34-3.86-3.19-5.16l.18-.33c1.56-.09,3.28-.92,3.28-2.84a2.43,2.43,0,0,0-2.59-2.37c-2.79,0-4.09,2.55-4.09,5.16,0,1.54,0,3.26,0,4.78,0,.45.2,1.14-.58,1.14h-.56c-.67,0-.67-.51-.67-1.05,0-1.18.11-13.53.11-13.87" transform="translate(12.24 13.08)"/><path class="cls-37" d="M183.77,50.29a4.44,4.44,0,0,1,4.69,4.44c0,1.94-.4,2.08-1,2.08h-7.33l0,.07c0,2.46,1.18,4.69,4,4.69a5.7,5.7,0,0,0,3.42-1.21,1,1,0,0,1,.47.49.83.83,0,0,1-.22,1.05A6.22,6.22,0,0,1,184,63c-4,0-5.72-2.75-5.72-6.43s2.06-6.3,5.47-6.3m2.9,5.22s0-.4,0-.78a2.78,2.78,0,0,0-3-3,3.73,3.73,0,0,0-3.62,3.75Z" transform="translate(12.24 13.08)"/><path class="cls-37" d="M191,59.87c0-1.9,0-5,0-6.92,0-.58,0-1.18,0-1.43,0-.74-.09-1.23.78-1.23s1,.47.92,2.28h.18A3.29,3.29,0,0,1,196,50.29a2.52,2.52,0,0,1,2.73,2.77c0,.94-.29,1.23-1.14,1.23s-.6-.27-.6-1a1.42,1.42,0,0,0-1.52-1.56c-1.5,0-2.52,2.17-2.66,3.48,0,1.79-.07,4.4,0,6.41,0,.56.22,1.14-.58,1.14h-.56c-.58,0-.67-.47-.65-1,0-.27,0-1.16,0-1.88" transform="translate(12.24 13.08)"/><path class="cls-37" d="M203.78,55.52a10.18,10.18,0,0,1,3.55.65V54.8c0-2-1.16-2.93-3-2.93a6.92,6.92,0,0,0-3.6,1c-.07,0-.92-1-.13-1.63a6.51,6.51,0,0,1,3.91-1c3,0,4.58,1.76,4.53,4.51,0,2-.07,5.85,0,7.1,0,.67.25,1.12-.89,1.12-.92,0-.94-1-.8-1.94h-.11a5.76,5.76,0,0,1-4,1.94,3.52,3.52,0,0,1-3.84-3.77c0-2.26,1.7-3.68,4.4-3.73m-3.06-7.93c0-1,.45-1.14,1.07-1.14s1.12.11,1.16,1.14-.47,1.14-1.07,1.14-1.14-.11-1.16-1.14m2.95,14a4.18,4.18,0,0,0,3.64-2.12V57.39a9.41,9.41,0,0,0-3.15-.51c-1.74,0-3,.83-3,2.32a2.25,2.25,0,0,0,2.5,2.37m2.63-14c0-1,.45-1.14,1.09-1.14s1.12.11,1.14,1.14-.47,1.14-1.07,1.14-1.14-.11-1.16-1.14" transform="translate(12.24 13.08)"/><path class="cls-37" d="M211.8,64.47a3.68,3.68,0,0,0,1.76.45c1.18,0,1.85-.85,2.5-3.1h-.45a.82.82,0,0,1-.91-.65c-.4-1.16-3.86-8.93-4.2-9.74-.16-.42-.27-.91.38-.91h.49c.67,0,.71.25.87.67.29.74,3.28,7.7,4,9.62h.13c.67-2.19,2.39-7.95,2.86-9.58.13-.45.18-.71.83-.71h.63c.6,0,.56.38.4.89-.43,1.45-2.57,8-3.35,10.54-.87,2.77-1.76,4.42-4.15,4.42a4.89,4.89,0,0,1-2.23-.47c-.45-.22-.4-.36-.34-.69l.13-.51c.09-.38.36-.36.63-.22" transform="translate(12.24 13.08)"/><path class="cls-37" d="M222.81,60.43a5.09,5.09,0,0,0,3.33,1.14c1.81,0,3.15-.72,3.15-2.08,0-1-1-1.52-2.19-1.9L225,56.88c-1.88-.65-2.79-1.5-2.79-3.17,0-1.94,1.63-3.42,4.47-3.42,2.57,0,3.46.8,3.68,1.16a1.1,1.1,0,0,1-.38,1.32,5.53,5.53,0,0,0-3.31-1c-1.41,0-2.7.63-2.7,1.94,0,.83.6,1.32,1.74,1.7l2,.67c2.19.74,3.24,1.5,3.24,3.3,0,2.08-1.63,3.64-4.87,3.64-2.5,0-3.64-.85-3.75-1.5a1.18,1.18,0,0,1,.43-1.09" transform="translate(12.24 13.08)"/></g></svg>