<?xml version="1.0" encoding="utf-8"?>
<!-- Generator: Adobe Illustrator 21.1.0, SVG Export Plug-In . SVG Version: 6.00 Build 0)  -->
<svg version="1.1" id="Layer_1" xmlns="http://www.w3.org/2000/svg" xmlns:xlink="http://www.w3.org/1999/xlink" x="0px" y="0px"
	 viewBox="0 0 40 40" style="enable-background:new 0 0 40 40;" xml:space="preserve">
<style type="text/css">
	.st0{clip-path:url(#SVGID_2_);fill:#FFFFFF;}
</style>
<g>
	<g>
		<defs>
			<rect id="SVGID_1_" width="40" height="40"/>
		</defs>
		<clipPath id="SVGID_2_">
			<use xlink:href="#SVGID_1_"  style="overflow:visible;"/>
		</clipPath>
		<path class="st0" d="M40,20C40,9,31,0,20,0S0,9,0,20s9,20,20,20S40,31,40,20 M34.2,20c0,7.8-6.4,14.2-14.2,14.2S5.8,27.8,5.8,20
			S12.2,5.8,20,5.8S34.2,12.2,34.2,20 M30.8,20c0-0.6-0.3-1.1-0.8-1.4l-14.2-8.3c-0.5-0.3-1.1-0.3-1.7,0c-0.5,0.3-0.8,0.9-0.8,1.5
			v16.7c0,0.6,0.3,1.1,0.8,1.5c0.3,0.1,0.5,0.2,0.8,0.2s0.6-0.1,0.8-0.2L30,21.4C30.5,21.1,30.8,20.6,30.8,20"/>
	</g>
</g>
</svg>
