<svg id="Layer_1" xmlns="http://www.w3.org/2000/svg" viewBox="0 0 1430.9 998.4"><style>.st0{fill:#f2f4f6}</style><path class="st0" d="M148.9 805.6l83.9-133.1c41.2-65.4 45.3-76.2 31.3-114.3-11-30-25.1-37-73.5-19.2-48.8 18-93.3 43-100.2 47.8L46.6 507c23-16 72.7-39.5 113.4-54.4 121.6-44.7 162-30.7 197 64.4 22.6 61.6 17 85.6-38.6 173l-39.6 62 155.7-57.3 28.8 78.3-287.4 105.8-27-73.2zM431.1 572.4c-54.8-149.1-25.3-210.2 95.7-254.7 120.6-44.4 181.8-17.8 236.6 131.3 54.8 149 25.7 211.1-95.4 255.7-120.5 44.3-182.1 16.7-236.9-132.3zM671 507.2c-4.5-12.2-14.2-38.7-15-40.7-26.4-71.7-46.8-83.3-99.2-64-52.4 19.3-59.8 39.9-33.4 111.6.7 2 10.5 28.5 15 40.7 26.4 71.7 47.9 86.3 100.3 67.1 52.4-19.3 58.7-43 32.3-114.7zM800.9 315.6L749 334.7l-29.8-80.9L870.9 198l137.8 374.4-99.7 36.7-108.1-293.5zM988.6 367.2l-.6-1.5c-27.1-73.8-33.8-116.9-7.8-157.7 22.4-34.8 95.7-82 207.7-134.2l39.9 77.1c-114.1 58.7-152.2 80.8-163.2 101.1-7.8 13.3-.8 29.2 6.5 49 8.7-6.1 60.7-32.7 90.2-43.6 116-42.7 133-37.4 171.7 67.9 28.6 77.8 14.9 128.5-115.8 176.6-142.4 52.5-173.8 14.4-228.6-134.7zm251.8-4.8c-13.8-37.6-20-46.4-62.2-30.8-34.6 12.7-64.2 26.5-82.2 37.2 0 0 5.8 15.8 6.2 16.8 18.7 50.9 35.4 63.2 89.3 43.4 46.8-17.3 61.1-33.5 48.9-66.6z"/></svg>