<svg id="Layer_1" data-name="Layer 1" xmlns="http://www.w3.org/2000/svg" viewBox="0 0 1439.45 512.1"><defs><style>.cls-1{fill:#a6ce39}</style></defs><title>2017</title><path class="cls-1" d="M-46.28 534.71L97.17 415.44c70.48-58.62 79.21-69.4 79.21-119.94 0-39.75-12.47-53.91-71.72-53.91-59.87 0-117.88 10.11-127.23 12.8l-15.6-111.84C-7 133.79 56 127.72 105.9 127.72c149.1 0 187.1 33.69 187.1 159.7 0 81.53-15.59 107.14-110.39 185.3L115.26 528H306.1v103.74H-46.28zM351 383.77c0-197.43 56.13-256 204.57-256 147.81 0 203.32 57.27 203.32 254.7s-56.13 257.4-204.57 257.4C406.51 639.82 351 581.2 351 383.77zm285 27v-53.95c0-95-17.46-117.24-81.7-117.24s-80.46 20.89-80.46 115.9v53.91c0 95 17.46 121.29 81.7 121.29S636 505.73 636 410.72zM852.44 242.95h-63.62V135.81h185.86v495.93H852.44zM1269.68 249.68h-247V135.81h370.47v116.57l-174.61 379.36h-134.72z" transform="translate(46.28 -127.72)"/></svg>