<svg id="Layer_1" xmlns="http://www.w3.org/2000/svg" xmlns:xlink="http://www.w3.org/1999/xlink" viewBox="0 0 40 32.7"><style>.st0{clip-path:url(#SVGID_2_);fill:#fff}</style><defs><path id="SVGID_1_" d="M0 0h40v32.7H0z"/></defs><clipPath id="SVGID_2_"><use xlink:href="#SVGID_1_" overflow="visible"/></clipPath><path class="st0" d="M40 3.4C40 1.5 38.5 0 36.7 0H3.3C1.5 0 0 1.5 0 3.4v25.9c0 1.9 1.5 3.4 3.3 3.4h33.3c1.8 0 3.3-1.5 3.3-3.4V3.4h.1zm-3.3-.7c.4 0 .7.3.7.7v25.9c0 .4-.3.7-.7.7H3.3c-.4 0-.7-.3-.7-.7V3.4c.1-.4.4-.7.7-.7h33.4zm-2 15L26 8.9 15.3 19.8 12 16.3l-6.7 6.8v4.1h29.3v-9.5h.1zM13.3 9.5c0-2.3-1.8-4.1-4-4.1s-4 1.8-4 4.1 1.8 4.1 4 4.1 4-1.8 4-4.1"/></svg>