<svg id="Layer_1" xmlns="http://www.w3.org/2000/svg" xmlns:xlink="http://www.w3.org/1999/xlink" viewBox="0 0 1600 600"><style>.st0{clip-path:url(#SVGID_2_)}.st1{fill:#f2f4f6}</style><defs><path id="SVGID_1_" d="M0 0h1600v600H0z"/></defs><clipPath id="SVGID_2_"><use xlink:href="#SVGID_1_" overflow="visible"/></clipPath><g class="st0"><path class="st1" d="M-2603.5 1435.3l162.5-59.8c94.1-34.6 148.9-34 191.6 82s.4 154-92.7 188.3c-33.7 12.4-46.6 17.1-65.4 24.1l34.8 94.6-96.6 35.5-134.2-364.7zm233.6 133.5c21.3-7.8 44.4-18.6 23.8-74.6-20.6-56-45.9-48.4-66.7-40.7-16.4 6-65.4 24.1-65.4 24.1l42.5 115.4c20.7-7.6 53.9-19.8 65.8-24.2zM-2090.3 1660.6l-98.1 36.1 7.6-419.7 89.7-33 277.8 314.6-103.1 37.9-36.9-43.8-137.2 50.5.2 57.4zm-.7-271l.1 127.1 81.8-30.1-81.9-97zM-1927.2 1186.5l162.5-59.8c94.1-34.6 148.9-34 191.6 82 42.7 115.9.4 154-92.7 188.3-33.7 12.4-46.6 17.1-65.4 24.1l34.8 94.6-96.6 35.5-134.2-364.7zm233.6 133.4c21.3-7.8 44.4-18.6 23.8-74.6-20.6-56-45.9-48.4-66.7-40.7-16.4 6-65.4 24.1-65.4 24.1l42.5 115.4c20.7-7.6 53.9-19.8 65.8-24.2zM-1598.2 1065.5l261.1-96.1 30.8 83.7-164 60.3 20.6 56 132.3-48.7 30.8 83.7-132.3 48.7 22.1 60 164-60.3 29.9 81.3-261.1 96.1-134.2-364.7zM-840.2 1200.6l-110.5 40.7-106-74.1c-11.9 4.4-39.1 14.4-53 19.5l36.6 99.6-96.1 35.4-134.2-364.7 157.6-58c94.1-34.6 148-36.5 190.7 79.5 26.4 71.8 18 107-14.7 131.4l129.6 90.7zm-236.3-113.3c31.7-11.7 41.3-27 24.7-72.1-17.1-46.6-36.6-49-65.8-38.2-16.4 6-60.9 22.4-60.9 22.4l40.7 110.5c20.6-7.7 49.4-18.2 61.3-22.6zM-952.1 827.7l97.6-35.9 134.2 364.7-97.6 35.9-134.2-364.7zM-811.4 776l97.6-35.9 204 138.7-69.2-188.3 93.2-34.3 134.2 364.7-82.2 30.3-228.3-157.3 78.2 212.6-93.2 34.3L-811.4 776zM-230.7 562.3l106-39-82.1 201.8L20.4 884-93 925.7l-152.1-106.1s-10.7 25.9-10.5 26.4l45.2 122.9-98.1 36.1-134.2-364.7 98.1-36.1 46.1 125.4 67.8-167.3zM-89 510.2l261.1-96.1 30.8 83.7L39 558.2l20.6 56 132.3-48.7 30.8 83.7-132.3 48.7 22.1 60 164-60.3 29.9 81.3-261.2 95.9L-89 510.2zM669 645.3L558.5 686l-106-74.1c-11.9 4.4-39.1 14.4-53 19.5l36.6 99.6-96.1 35.4-134.2-364.7 157.6-58c94.1-34.6 148-36.5 190.7 79.5 26.4 71.8 18 107-14.7 131.4L669 645.3zM432.7 532c31.7-11.7 41.3-27 24.7-72.1-17.1-46.6-36.6-49-65.8-38.2-16.3 6-60.9 22.4-60.9 22.4l40.7 110.5c20.6-7.6 49.4-18.2 61.3-22.6zM560.6 271.2l85.7-31.5 29.4 79.8-85.7 31.4-29.4-79.7zm216.9 334.2l-98.1 36.1 7.6-419.7 89.7-33 277.8 314.6-103.1 37.9-36.9-43.8L777.3 548l.2 57.4zm-.6-270.9l.1 127.1 81.8-30.1-81.9-97zM819.2 176l85.7-31.5 29.4 79.8-85.7 31.5-29.4-79.8zM1151.6 333.3L921.3 138.5l105.5-38.8 140 119 29.5-181.3 100.6-37-48.9 295.2 44.3 120.4-97.1 35.7-43.6-118.4zM1426.7 357.6l-14.7-85.7c13-1.4 93.7-20.4 126.9-32.6 46.1-17 52.2-24.8 42.9-50.1-8.9-24.3-16.6-23.7-77.4-13.1-112.5 20-141.4 13.2-172.6-71.5-30.6-83.2 13.3-127.5 100.5-159.6 42.1-15.5 119.2-35.4 139.7-36.2L1586.8-5c-31.9 6.7-80.5 16.7-124.6 32.9-35.2 12.9-39.4 22.9-32.1 42.7 9.1 24.8 16.6 23.7 70.4 14 120.4-21.2 148.6-18.1 180.7 69.1 30.3 82.2-4.6 126.6-113.6 166.7-63.9 23.4-124.3 35-140.9 37.2z"/></g></svg>