<?xml version="1.0" encoding="utf-8"?>
<!-- Generator: Adobe Illustrator 21.1.0, SVG Export Plug-In . SVG Version: 6.00 Build 0)  -->
<svg version="1.1" id="Layer_1" xmlns="http://www.w3.org/2000/svg" xmlns:xlink="http://www.w3.org/1999/xlink" x="0px" y="0px"
	 viewBox="0 0 1600 490" style="enable-background:new 0 0 1600 490;" xml:space="preserve">
<style type="text/css">
	.st0{clip-path:url(#SVGID_2_);}
	.st1{fill:#A6CE39;}
</style>
<g>
	<defs>
		<rect id="SVGID_1_" width="1600" height="490"/>
	</defs>
	<clipPath id="SVGID_2_">
		<use xlink:href="#SVGID_1_"  style="overflow:visible;"/>
	</clipPath>
	<g class="st0">
		<path class="st1" d="M-1926.4,973.3l162.5-59.8c94.1-34.6,148.9-34,191.6,82c42.7,115.9,0.4,154-92.7,188.3
			c-33.7,12.4-46.6,17.1-65.4,24.1l34.8,94.6l-96.6,35.5L-1926.4,973.3z M-1692.7,1106.8c21.3-7.8,44.4-18.6,23.8-74.6
			c-20.6-56-45.9-48.4-66.7-40.7c-16.4,6-65.4,24.1-65.4,24.1l42.5,115.4C-1737.8,1123.4-1704.6,1111.2-1692.7,1106.8z"/>
		<path class="st1" d="M-1413.1,1198.6l-98.1,36.1l7.6-419.7l89.7-33l277.8,314.6l-103.1,37.9l-36.9-43.8l-137.2,50.5
			L-1413.1,1198.6z M-1413.8,927.6l0.1,127.1l81.8-30.1L-1413.8,927.6z"/>
		<path class="st1" d="M-1250,724.5l162.5-59.8c94.1-34.6,148.9-34,191.6,82c42.7,115.9,0.4,154-92.7,188.3
			c-33.7,12.4-46.6,17.1-65.4,24.1l34.8,94.6l-96.6,35.5L-1250,724.5z M-1016.4,857.9c21.3-7.8,44.4-18.6,23.8-74.6
			s-45.9-48.4-66.7-40.7c-16.4,6-65.4,24.1-65.4,24.1l42.5,115.4C-1061.5,874.5-1028.3,862.3-1016.4,857.9z"/>
		<path class="st1" d="M-921,603.5l261.1-96.1l30.8,83.7l-164,60.3l20.6,56l132.3-48.7l30.8,83.7l-132.3,48.7l22.1,60l164-60.3
			l29.9,81.3l-261.1,96.1L-921,603.5z"/>
		<path class="st1" d="M-163.1,738.6l-110.5,40.7l-106-74.1c-11.9,4.4-39.1,14.4-53,19.5l36.6,99.6l-96.1,35.4L-626.2,495l157.6-58
			c94.1-34.6,148-36.5,190.7,79.5c26.4,71.8,18,107-14.7,131.4L-163.1,738.6z M-399.4,625.3c31.7-11.7,41.3-27,24.7-72.1
			c-17.1-46.6-36.6-49-65.8-38.2c-16.4,6-60.9,22.4-60.9,22.4l40.7,110.5C-440,640.2-411.3,629.7-399.4,625.3z"/>
		<path class="st1" d="M-274.9,365.7l97.6-35.9l134.2,364.7l-97.6,35.9L-274.9,365.7z"/>
		<path class="st1" d="M-134.2,314l97.6-35.9l204,138.7L98.2,228.5l93.2-34.3l134.2,364.7l-82.2,30.3L14.9,431.8l78.2,212.6
			l-93.2,34.3L-134.2,314z"/>
		<path class="st1" d="M446.5,100.3l106-39l-82.1,201.8L697.6,422l-113.5,41.7L432,357.6c0,0-10.7,25.9-10.5,26.4l45.2,122.9
			L368.6,543L234.4,178.3l98.1-36.1l46.1,125.4L446.5,100.3z"/>
		<path class="st1" d="M588.2,48.2l261.1-96.1l30.8,83.7l-164,60.3l20.6,56L869,103.5l30.8,83.7l-132.3,48.7l22.1,60l164-60.3
			l29.9,81.3l-261.1,96.1L588.2,48.2z"/>
		<path class="st1" d="M1346.2,183.3L1235.7,224l-106-74.1c-11.9,4.4-39.1,14.4-53,19.5l36.6,99.6l-96.1,35.4L883-60.3l157.6-58
			c94.1-34.6,148-36.5,190.7,79.5c26.4,71.8,18,107-14.7,131.4L1346.2,183.3z M1109.8,70c31.7-11.7,41.3-27,24.7-72.1
			c-17.1-46.6-36.6-49-65.8-38.2c-16.3,6-60.9,22.4-60.9,22.4l40.7,110.5C1069.2,85,1097.9,74.4,1109.8,70z"/>
		<path class="st1" d="M1237.7-190.8l85.7-31.5l29.4,79.8l-85.7,31.5L1237.7-190.8z M1454.7,143.4l-98.1,36.1l7.6-419.7l89.7-33
			l277.8,314.6l-103.1,37.9l-36.9-43.8l-137.2,50.5L1454.7,143.4z M1454-127.5l0.1,127.1l81.8-30.1L1454-127.5z M1496.4-286
			l85.7-31.5l29.4,79.8l-85.7,31.5L1496.4-286z"/>
		<path class="st1" d="M1828.8-128.7l-230.3-194.8l105.5-38.8l140,119l29.5-181.3l100.6-37l-48.9,295.3L1969.5-46l-97.1,35.7
			L1828.8-128.7z"/>
		<path class="st1" d="M2103.8-104.4l-14.7-85.7c13-1.4,93.7-20.4,126.9-32.6c46.1-17,52.2-24.8,42.9-50.1
			c-8.9-24.3-16.6-23.7-77.4-13.1c-112.5,20-141.4,13.2-172.6-71.5c-30.6-83.2,13.3-127.5,100.5-159.6
			c42.1-15.5,119.2-35.4,139.7-36.2l14.9,86.2c-31.9,6.7-80.5,16.7-124.6,32.9c-35.2,12.9-39.4,22.9-32.1,42.7
			c9.1,24.8,16.6,23.7,70.4,14c120.4-21.3,148.6-18.1,180.7,69.1c30.3,82.2-4.6,126.6-113.6,166.7
			C2180.9-118.2,2120.4-106.6,2103.8-104.4z"/>
	</g>
</g>
</svg>
