<svg id="Layer_1" xmlns="http://www.w3.org/2000/svg" xmlns:xlink="http://www.w3.org/1999/xlink" viewBox="0 0 1600 490"><style>.st0{clip-path:url(#SVGID_2_)}.st1{fill:#a6ce39}</style><defs><path id="SVGID_1_" d="M0 0h1600v490H0z"/></defs><clipPath id="SVGID_2_"><use xlink:href="#SVGID_1_" overflow="visible"/></clipPath><g class="st0"><path class="st1" d="M-1926.4 973.3l162.5-59.8c94.1-34.6 148.9-34 191.6 82 42.7 115.9.4 154-92.7 188.3-33.7 12.4-46.6 17.1-65.4 24.1l34.8 94.6-96.6 35.5-134.2-364.7zm233.7 133.5c21.3-7.8 44.4-18.6 23.8-74.6-20.6-56-45.9-48.4-66.7-40.7-16.4 6-65.4 24.1-65.4 24.1l42.5 115.4c20.7-7.6 53.9-19.8 65.8-24.2zM-1413.1 1198.6l-98.1 36.1 7.6-419.7 89.7-33 277.8 314.6-103.1 37.9-36.9-43.8-137.2 50.5.2 57.4zm-.7-271l.1 127.1 81.8-30.1-81.9-97zM-1250 724.5l162.5-59.8c94.1-34.6 148.9-34 191.6 82 42.7 115.9.4 154-92.7 188.3-33.7 12.4-46.6 17.1-65.4 24.1l34.8 94.6-96.6 35.5-134.2-364.7zm233.6 133.4c21.3-7.8 44.4-18.6 23.8-74.6s-45.9-48.4-66.7-40.7c-16.4 6-65.4 24.1-65.4 24.1l42.5 115.4c20.7-7.6 53.9-19.8 65.8-24.2zM-921 603.5l261.1-96.1 30.8 83.7-164 60.3 20.6 56 132.3-48.7 30.8 83.7-132.3 48.7 22.1 60 164-60.3 29.9 81.3-261.1 96.1L-921 603.5zM-163.1 738.6l-110.5 40.7-106-74.1c-11.9 4.4-39.1 14.4-53 19.5l36.6 99.6-96.1 35.4L-626.2 495l157.6-58c94.1-34.6 148-36.5 190.7 79.5 26.4 71.8 18 107-14.7 131.4l129.5 90.7zm-236.3-113.3c31.7-11.7 41.3-27 24.7-72.1-17.1-46.6-36.6-49-65.8-38.2-16.4 6-60.9 22.4-60.9 22.4l40.7 110.5c20.7-7.7 49.4-18.2 61.3-22.6zM-274.9 365.7l97.6-35.9 134.2 364.7-97.6 35.9-134.2-364.7zM-134.2 314l97.6-35.9 204 138.7-69.2-188.3 93.2-34.3 134.2 364.7-82.2 30.3L14.9 431.8l78.2 212.6-93.2 34.3L-134.2 314zM446.5 100.3l106-39-82.1 201.8L697.6 422l-113.5 41.7L432 357.6s-10.7 25.9-10.5 26.4l45.2 122.9-98.1 36.1-134.2-364.7 98.1-36.1 46.1 125.4 67.9-167.3zM588.2 48.2l261.1-96.1 30.8 83.7-164 60.3 20.6 56L869 103.5l30.8 83.7-132.3 48.7 22.1 60 164-60.3 29.9 81.3L722.4 413 588.2 48.2zM1346.2 183.3L1235.7 224l-106-74.1c-11.9 4.4-39.1 14.4-53 19.5l36.6 99.6-96.1 35.4L883-60.3l157.6-58c94.1-34.6 148-36.5 190.7 79.5 26.4 71.8 18 107-14.7 131.4l129.6 90.7zM1109.8 70c31.7-11.7 41.3-27 24.7-72.1-17.1-46.6-36.6-49-65.8-38.2-16.3 6-60.9 22.4-60.9 22.4l40.7 110.5c20.7-7.6 49.4-18.2 61.3-22.6zM1237.7-190.8l85.7-31.5 29.4 79.8-85.7 31.5-29.4-79.8zm217 334.2l-98.1 36.1 7.6-419.7 89.7-33 277.8 314.6-103.1 37.9-36.9-43.8L1454.5 86l.2 57.4zm-.7-270.9l.1 127.1 81.8-30.1-81.9-97zm42.4-158.5l85.7-31.5 29.4 79.8-85.7 31.5-29.4-79.8zM1828.8-128.7l-230.3-194.8 105.5-38.8 140 119 29.5-181.3 100.6-37-48.9 295.3L1969.5-46l-97.1 35.7-43.6-118.4zM2103.8-104.4l-14.7-85.7c13-1.4 93.7-20.4 126.9-32.6 46.1-17 52.2-24.8 42.9-50.1-8.9-24.3-16.6-23.7-77.4-13.1-112.5 20-141.4 13.2-172.6-71.5-30.6-83.2 13.3-127.5 100.5-159.6 42.1-15.5 119.2-35.4 139.7-36.2L2264-467c-31.9 6.7-80.5 16.7-124.6 32.9-35.2 12.9-39.4 22.9-32.1 42.7 9.1 24.8 16.6 23.7 70.4 14 120.4-21.3 148.6-18.1 180.7 69.1 30.3 82.2-4.6 126.6-113.6 166.7-63.9 23.4-124.4 35-141 37.2z"/></g></svg>