<svg id="Layer_1" xmlns="http://www.w3.org/2000/svg" viewBox="0 0 1000 1000"><style>.st0{fill:#fff}</style><path class="st0" d="M457.6 1250.2l-126.1 126.1c-5.9 5.9-8.8 12.9-8.8 21.2s2.9 15.2 8.8 20.7l367.5 368L595 1890c-4.1 4.1-6.2 7.9-6.2 11.4 0 5.2 5.3 8.3 16 9.3h357.6c8.3.7 15.1-1.6 20.4-6.7 5.3-5.2 7.7-11.9 7-20.2v-353c-1.4-14.5-4.8-21.7-10.3-21.7-2.4 0-5.2 1.6-8.3 4.7l-103.9 103.9-368-367.5c-5.9-5.9-12.8-8.8-20.9-8.8-8 0-15 2.9-20.8 8.8zm-240.9-321c-27.9 0-54.6 5.4-80.1 16.3-25.5 10.9-47.5 25.6-66.2 44.2-18.6 18.6-33.3 40.7-44.2 66.2S10 1108 10 1135.9v516.8c0 27.9 5.4 54.6 16.3 80.1s25.6 47.5 44.2 66.2c18.6 18.6 40.7 33.3 66.2 44.2 25.5 10.9 52.2 16.3 80.1 16.3H411l103.4-103.4H165c-14.1 0-26.3-5.1-36.4-15.2-10.2-10.2-15.2-22.3-15.2-36.4v-620.2c0-14.1 5.1-26.3 15.2-36.4 10.2-10.2 22.3-15.2 36.4-15.2h620.2c14.1 0 26.3 5.1 36.4 15.2s15.2 22.3 15.2 36.4v349.4l103.4-103.4V1136c0-37.6-9.2-72.2-27.6-103.9-18.4-31.7-43.6-56.8-75.5-75.2s-66.4-27.7-103.6-27.7H216.7z" transform="matrix(1 0 0 -1 0 1920)"/></svg>