<svg id="Layer_1" xmlns="http://www.w3.org/2000/svg" xmlns:xlink="http://www.w3.org/1999/xlink" viewBox="0 0 1600 732"><style>.st0{clip-path:url(#SVGID_2_)}.st1{fill:#fff}</style><defs><path id="SVGID_1_" d="M0 0h1600v732H0z"/></defs><clipPath id="SVGID_2_"><use xlink:href="#SVGID_1_" overflow="visible"/></clipPath><g class="st0"><path class="st1" d="M-150.9 446.8L11.6 387c94.1-34.6 148.9-34 191.6 82 42.7 115.9.4 154-92.7 188.3-33.7 12.4-46.6 17.1-65.4 24.1L79.9 776l-96.6 35.5-134.2-364.7zM82.7 580.2c21.3-7.8 44.4-18.6 23.8-74.6s-45.9-48.4-66.7-40.7c-16.4 6-65.4 24.1-65.4 24.1l42.5 115.4c20.7-7.6 53.9-19.8 65.8-24.2zM362.3 672l-98.1 36.1 7.6-419.7 89.7-33L639.3 570l-103.1 38-36.9-43.8L362 614.7l.3 57.3zm-.7-270.9l.1 127.1 81.8-30.1-81.9-97zM525.4 197.9l162.5-59.8c94.1-34.6 148.9-34 191.6 82 42.7 115.9.4 154-92.7 188.3-33.7 12.4-46.6 17.1-65.4 24.1l34.8 94.6-96.6 35.5-134.2-364.7zM759 331.4c21.3-7.8 44.4-18.6 23.8-74.6-20.6-56-45.9-48.4-66.7-40.7-16.4 6-65.4 24.1-65.4 24.1l42.5 115.4c20.7-7.7 53.9-19.9 65.8-24.2zM854.4 76.9l261.1-96.1 30.8 83.7-164 60.3 20.6 56 132.3-48.7 30.8 83.7-132.3 48.7 22.1 60 164-60.3 29.9 81.3-261.1 96.1L854.4 76.9zM1612.4 212l-110.5 40.7-106-74.1c-11.9 4.4-39.1 14.4-53 19.5l36.6 99.6-96.1 35.4-134.2-364.7 157.6-58c94.1-34.6 148-36.5 190.7 79.5 26.4 71.8 18 107-14.7 131.4l129.6 90.7zM1376 98.7c31.7-11.7 41.3-27 24.7-72.1-17.1-46.6-36.6-49-65.8-38.2-16.4 6-60.9 22.4-60.9 22.4l40.7 110.5c20.7-7.6 49.4-18.2 61.3-22.6zM1500.5-160.8l97.6-35.9L1732.3 168l-97.6 35.9-134.2-364.7zM1641.2-212.6l97.6-35.9 204 138.7-69.3-188.3 93.2-34.3 134.2 364.7-82.2 30.3-228.4-157.4 78.2 212.6-93.2 34.3-134.1-364.7zM2221.9-426.3l106-39-82.1 201.8L2473-104.6l-113.5 41.7L2207.4-169s-10.7 25.9-10.5 26.4l45.2 122.9-98.1 36.1-134.2-364.7 98.1-36.1L2154-259l67.9-167.3zM2363.6-478.4l261.1-96.1 30.8 83.7-164 60.3 20.6 56 132.3-48.7 30.8 83.7-132.3 48.7 22.1 60 164-60.3 29.9 81.3-261.1 96.1-134.2-364.7zM3121.6-343.3l-110.5 40.7-106-74.1c-11.9 4.4-39.1 14.4-53 19.5l36.6 99.6-96.1 35.4-134.2-364.7 157.6-58c94.1-34.6 148-36.5 190.7 79.5 26.4 71.8 18 107-14.7 131.4l129.6 90.7zm-236.4-113.3c31.7-11.7 41.3-27 24.7-72.1-17.1-46.6-36.6-49-65.8-38.2-16.4 6-60.9 22.4-60.9 22.4l40.7 110.5c20.7-7.6 49.5-18.2 61.3-22.6zM3013.2-717.4l85.7-31.5 29.4 79.8-85.7 31.5-29.4-79.8zm216.9 334.2l-98.1 36.1 7.6-419.7 89.7-33 277.8 314.6-103.1 38-36.9-43.8-137.2 50.5.2 57.3zm-.7-270.9l.1 127.1 81.8-30.1-81.9-97zm42.4-158.5l85.7-31.5 29.4 79.8-85.7 31.5-29.4-79.8zM3604.2-655.3l-230.3-194.8 105.5-38.8 140 119 29.5-181.3 100.6-37-48.9 295.2 44.3 120.4-97.1 35.7-43.6-118.4zM3879.2-631l-14.7-85.7c13-1.4 93.7-20.4 126.9-32.6 46.1-17 52.2-24.8 42.9-50.1-8.9-24.3-16.6-23.7-77.4-13.1-112.5 20-141.4 13.2-172.6-71.5-30.6-83.2 13.3-127.5 100.5-159.6 42.1-15.5 119.2-35.4 139.7-36.2l14.9 86.2c-31.9 6.7-80.5 16.7-124.6 32.9-35.2 12.9-39.4 22.9-32.1 42.7 9.1 24.8 16.6 23.7 70.4 14 120.4-21.2 148.6-18.1 180.7 69.1 30.3 82.2-4.6 126.6-113.6 166.7-63.9 23.4-124.3 35-141 37.2z"/></g></svg>