<svg id="Layer_1" data-name="Layer 1" xmlns="http://www.w3.org/2000/svg" xmlns:xlink="http://www.w3.org/1999/xlink" viewBox="0 0 309.96 106.98"><defs><style>.cls-1{fill:none}.cls-2{font-size:22px;fill:#68ad45;font-family:Stainless-Black,Stainless}.cls-3{letter-spacing:-.01em}.cls-4{letter-spacing:0}.cls-5{letter-spacing:-.02em}.cls-6{clip-path:url(#clip-path)}.cls-7{fill:url(#linear-gradient)}.cls-8{clip-path:url(#clip-path-2)}.cls-9{fill:url(#linear-gradient-2)}.cls-10{clip-path:url(#clip-path-3)}.cls-11{fill:url(#linear-gradient-3)}.cls-12{clip-path:url(#clip-path-4)}.cls-13{fill:url(#linear-gradient-4)}.cls-14{clip-path:url(#clip-path-5)}.cls-15{fill:#edf5e9}.cls-16{clip-path:url(#clip-path-6)}.cls-17{fill:url(#linear-gradient-5)}.cls-18{clip-path:url(#clip-path-7)}.cls-19{fill:url(#linear-gradient-6)}.cls-20{clip-path:url(#clip-path-8)}.cls-21{fill:url(#linear-gradient-7)}.cls-22{clip-path:url(#clip-path-9)}.cls-23{fill:url(#linear-gradient-8)}.cls-24{clip-path:url(#clip-path-10)}.cls-25{fill:url(#linear-gradient-9)}.cls-26{fill:#03522f}.cls-27{fill:#72be45}.cls-28{clip-path:url(#clip-path-12)}.cls-29{fill:url(#linear-gradient-10)}.cls-30{clip-path:url(#clip-path-13)}.cls-31{fill:url(#linear-gradient-11)}.cls-32{clip-path:url(#clip-path-14)}.cls-33{fill:url(#linear-gradient-12)}.cls-34{clip-path:url(#clip-path-15)}.cls-35{fill:#d6de27}.cls-36{fill:#b2d236}.cls-37{fill:#010101}</style><clipPath id="clip-path" transform="translate(12.24 13.08)"><path class="cls-1" d="M80.22 31.61c-11.58 29-30.48 34.56-41.82 35 6 0 29.66-1.73 45.76-32.72C91.33 20.14 105 9.81 105.64 20.85a28.58 28.58 0 0 0 .73-5.42v-.34c0-.11 0-.26-.06-.39v-.11c-.49-2.67-1.57-4.51-3.05-5.52h-.07c-.15-.1-.3-.18-.46-.26a5.19 5.19 0 0 0-2.31-.52c-5.6 0-13.89 7.73-20.13 23.36"/></clipPath><linearGradient id="linear-gradient" x1="-502.62" y1="432.75" x2="-501.62" y2="432.75" gradientTransform="matrix(-16.32 0 0 16.32 -8087.94 -7026.93)" gradientUnits="userSpaceOnUse"><stop offset="0" stop-color="#017948"/><stop offset="1" stop-color="#e1e33f"/></linearGradient><clipPath id="clip-path-2" transform="translate(12.24 13.08)"><path class="cls-1" d="M34.95 66.78h.06"/></clipPath><linearGradient id="linear-gradient-2" x1="2484.6" y1="-15187.05" x2="2485.6" y2="-15187.05" gradientTransform="matrix(0 -.04 -.04 0 -535.76 160.2)" gradientUnits="userSpaceOnUse"><stop offset="0" stop-color="#017948"/><stop offset=".6" stop-color="#b1d136"/><stop offset=".95" stop-color="#b1d136"/><stop offset="1" stop-color="#b1d136"/></linearGradient><clipPath id="clip-path-3" transform="translate(12.24 13.08)"><path class="cls-1" d="M1.46 38c.42 1.47.93 3 1.54 4.64A37.28 37.28 0 0 0 29 65.9h-.12a17.21 17.21 0 0 0 2.3.44 31.18 31.18 0 0 1-21.02-19.87 54.6 54.6 0 0 1-1.81-6.16C6 39.6 3.72 38.9 1.46 38z"/></clipPath><linearGradient id="linear-gradient-3" x1="-467.51" y1="423.38" x2="-466.51" y2="423.38" gradientTransform="matrix(0 -28.12 -28.12 0 11923.79 -13074.58)" xlink:href="#linear-gradient-2"/><clipPath id="clip-path-4" transform="translate(12.24 13.08)"><path class="cls-1" d="M10.16 46.47a31.06 31.06 0 0 0 21 19.82A33.13 33.13 0 0 0 41.94 66c-8.07.18-17.51-3.23-22.94-16.33A37.26 37.26 0 0 1 17.13 44a80.72 80.72 0 0 1-8.57-2.83c.41 1.66.94 3.43 1.6 5.3"/></clipPath><linearGradient id="linear-gradient-4" x1="-471.28" y1="453.41" x2="-470.28" y2="453.41" gradientTransform="matrix(0 64.2 64.2 0 -29083.02 30273.49)" gradientUnits="userSpaceOnUse"><stop offset="0" stop-color="#ccdb31"/><stop offset=".55" stop-color="#ccdb31"/><stop offset="1" stop-color="#017948"/></linearGradient><clipPath id="clip-path-5" transform="translate(12.24 13.08)"><path class="cls-1" d="M0 0h231v66.79H0z"/></clipPath><clipPath id="clip-path-6" transform="translate(12.24 13.08)"><path class="cls-1" d="M30.69 66.22c-1.13-.18-1.77-.35-1.78-.35s.76.21 2.11.41c7.62 1.17 34.06 2.34 48.91-34a41 41 0 0 1-5.8-2.28C62.26 68.35 37.52 67.29 30.69 66.22"/></clipPath><linearGradient id="linear-gradient-5" x1="-480.06" y1="446.85" x2="-479.06" y2="446.85" gradientTransform="matrix(-48.77 0 0 48.77 -23333.28 -21741.74)" gradientUnits="userSpaceOnUse"><stop offset="0" stop-color="#017948"/><stop offset="1" stop-color="#016538"/></linearGradient><clipPath id="clip-path-7" transform="translate(12.24 13.08)"><path class="cls-1" d="M8.56 41.17A80.72 80.72 0 0 0 17.13 44c-4.89-20.51 17.35-24.32 39.45-19.61-7.09-2.26-14.93-4.45-22.37-6a60.77 60.77 0 0 0-7-.44c-14 0-22.84 6.11-18.62 23.24"/></clipPath><linearGradient id="linear-gradient-6" x1="-448.03" y1="442.32" x2="-447.03" y2="442.32" gradientTransform="matrix(29.74 0 0 -29.74 13336.12 13183.77)" gradientUnits="userSpaceOnUse"><stop offset="0" stop-color="#ccdb31"/><stop offset=".04" stop-color="#ccdb31"/><stop offset="1" stop-color="#045230"/></linearGradient><clipPath id="clip-path-8" transform="translate(12.24 13.08)"><path class="cls-1" d="M5.05 18.62C.32 22.5-.11 28.09.1 31.27v.58A40.83 40.83 0 0 0 1.46 38c2.26.9 4.54 1.6 6.89 2.31-.05-.23-.09-.45-.14-.68s-.07-.35-.11-.53c-.08-.42-.16-.84-.22-1.25 0-.16 0-.32-.07-.47q-.09-.62-.15-1.23v-.41c0-.41-.07-.81-.09-1.2v-.35-1.17-.3c0-.38 0-.76.06-1.12v-.29c0-.36.07-.71.13-1 0-.11 0-.21.06-.32.05-.31.11-.63.18-.93s.08-.29.12-.44.13-.49.21-.72.18-.5.27-.75.08-.23.13-.33c3.29-7.89 13.12-9.85 25.5-8.41a93.5 93.5 0 0 0-18.33-2.32c-4.77 0-8.58.75-10.8 2.57"/></clipPath><linearGradient id="linear-gradient-7" x1="-487.7" y1="447.11" x2="-486.7" y2="447.11" gradientTransform="matrix(-30.15 0 0 30.15 -14666.03 -13452.94)" gradientUnits="userSpaceOnUse"><stop offset="0" stop-color="#045230"/><stop offset="1" stop-color="#b1d136"/></linearGradient><clipPath id="clip-path-9" transform="translate(12.24 13.08)"><path class="cls-1" d="M37.25 19l.28.07z"/></clipPath><linearGradient id="linear-gradient-8" x1="-4693.22" y1="927.57" x2="-4692.22" y2="927.57" gradientTransform="matrix(-.14 0 0 .14 -622.25 -111.32)" xlink:href="#linear-gradient-7"/><clipPath id="clip-path-10" transform="translate(12.24 13.08)"><path class="cls-1" d="M34.46 18.43l2.3.5z"/></clipPath><linearGradient id="linear-gradient-9" x1="-1043.94" y1="510.51" x2="-1042.94" y2="510.51" gradientTransform="matrix(-1.03 0 0 1.03 -1040.29 -507.82)" xlink:href="#linear-gradient-7"/><clipPath id="clip-path-12" transform="translate(12.24 13.08)"><path class="cls-1" d="M56.51 24.37l-.21-.07.21.07m-2.33-.73l2.12.66-2.11-.66z"/></clipPath><linearGradient id="linear-gradient-10" x1="249.87" y1="362.65" x2="250.87" y2="362.65" gradientTransform="matrix(.83 0 0 -.83 -151.87 324.06)" gradientUnits="userSpaceOnUse"><stop offset="0" stop-color="#edf5e9"/><stop offset="1" stop-color="#045230"/></linearGradient><clipPath id="clip-path-13" transform="translate(12.24 13.08)"><path class="cls-1" d="M16.47 39.28v1.71c0 .15 0 .36.07.55l.06.4c0 .21.07.43.11.65l.06.34.18.85v.15c2.46.65 4.93 1.34 7.44 2-4.49-19.35 17.69-25.39 39-19.18-2.21-.77-4.55-1.55-7-2.33a77.83 77.83 0 0 0-16-1.81c-13.75 0-24.54 4.74-24.12 16.69"/></clipPath><linearGradient id="linear-gradient-11" x1="-449.93" y1="442.55" x2="-448.93" y2="442.55" gradientTransform="matrix(32.86 0 0 -32.86 14805.39 14576.28)" xlink:href="#linear-gradient-10"/><clipPath id="clip-path-14" transform="translate(12.24 13.08)"><path class="cls-1" d="M74.3 29.49l-.16.52a41 41 0 0 0 5.81 2.29l.29-.69c9.72-24.32 24.4-29.52 26.15-16.19a43.54 43.54 0 0 0-.08-4.94C105.28 3.88 101.62 0 96.93 0c-7 0-16.28 8.57-22.63 29.49"/></clipPath><linearGradient id="linear-gradient-12" x1="-325.76" y1="478.44" x2="-324.76" y2="478.44" gradientTransform="matrix(4.09 0 0 -4.09 1435.63 1971.83)" xlink:href="#linear-gradient-5"/><clipPath id="clip-path-15" transform="translate(12.24 13.08)"><path class="cls-1" d="M0 0h231v66.79H0z"/></clipPath></defs><title>paperinkerays-logo</title><text class="cls-2" transform="translate(258.24 77.37)"><tspan class="cls-3">2</tspan><tspan class="cls-4" x="13.73" y="0">0</tspan><tspan class="cls-5" x="29.48" y="0">1</tspan><tspan x="37.33" y="0">7</tspan></text><path class="cls-6 cls-7" transform="rotate(-19.44 116.695 8.271)" d="M30.61-1.39h83.55v77.73H30.61z"/><path class="cls-8 cls-9" transform="rotate(-27.78 67.548 48.566)" d="M34.95 66.77h.06v.04h-.06z"/><path class="cls-10 cls-11" transform="rotate(-37.15 41.933 40.487)" d="M-4.06 31.91h40.8v40.52h-40.8z"/><path class="cls-12 cls-13" transform="rotate(-17.85 73.02 21.548)" d="M5.44 36.67h39.63v34.64H5.44z"/><path class="cls-14 cls-15" d="M41.92 66c.9-.18 1.93-.49 2.87-.76-6.78.17-14.33-3.31-19-15.29a30.08 30.08 0 0 1-1.26-4.06c-2.51-.61-5-1.31-7.45-2A37.15 37.15 0 0 0 19 49.63C24.43 62.73 33.84 66.2 41.92 66" transform="translate(12.24 13.08)"/><path class="cls-16 cls-17" transform="rotate(-48.81 74.969 42.36)" d="M23.1 17.4h62.65v63.82H23.1z"/><path class="cls-18 cls-19" transform="rotate(-45 52.373 22.726)" d="M2.77 3.28h55.38v55.38H2.77z"/><path class="cls-20 cls-21" transform="rotate(-45 38.948 19.937)" d="M-3.67 7.48h41.41v41.41H-3.67z"/><path class="cls-22 cls-23" transform="rotate(-45 59.32 10.839)" d="M37.27 18.94h.27v.27h-.27z"/><path class="cls-24 cls-25" transform="rotate(-45 57.522 10.434)" d="M34.62 17.69h1.98v1.98h-1.98z"/><g class="cls-14"><path class="cls-26" d="M77.82 32.21c-.81-.31-1.63-.64-2.47-1l-1.41-.58-.69 2.06a8.82 8.82 0 0 1 6 1.26l.41-1-1.84-.76" transform="translate(12.24 13.08)"/><path class="cls-27" d="M83.42 34.55c-.66-.3-2.17-.93-3.76-1.59l-.41 1a7.56 7.56 0 0 1 3 3.51l1.54-2.75-.35-.15" transform="translate(12.24 13.08)"/></g><path class="cls-28 cls-29" transform="rotate(-45 77.261 15.767)" d="M54.26 22.92h2.17v2.17h-2.17z"/><path class="cls-30 cls-31" transform="rotate(-45 61.717 24.956)" d="M14.04 7.43h51.55v51.55H14.04z"/><path class="cls-32 cls-33" transform="rotate(-25.02 125.88 -4.888)" d="M68.82-5.32h42.94v42.94H68.82z"/><g class="cls-34"><path class="cls-35" d="M105.28 26.74C103 34.77 94 38.44 77.78 32.19c2.11.87 4.71 1.95 5.64 2.36 8.21 3.67 18.54 5.73 22.05-8.47l-.18.66" transform="translate(12.24 13.08)"/><path class="cls-36" d="M106.26 10c2.18 27.43-19.35 25-30.64 20.3C37.75 14.36-2.51 4 .12 31.62c-.26-3.1 0-9 4.93-13 10.22-8.37 54.39 5.8 70.29 12.59 17.77 7.59 27.51 3.95 29.93-4.47a38.38 38.38 0 0 0 1-16.76" transform="translate(12.24 13.08)"/></g><g class="cls-14"><path class="cls-37" d="M88 48.82c0-.51-.16-1.21.69-1.21H93c4 0 6 2.21 6.05 5.14S96.9 58 93.06 58h-3.28v3.62c0 .49.25 1.18-.6 1.18h-.62c-.62 0-.65-.6-.62-1.07V48.82m5 7.75c2.81 0 4.2-1.52 4.2-3.73s-1.36-3.77-4.2-3.77h-3.18v7.5zM104.45 55.52a10.17 10.17 0 0 1 3.55.65V54.8c0-2-1.16-2.93-3-2.93a6.91 6.91 0 0 0-3.6 1c-.07 0-.92-1-.13-1.63a6.5 6.5 0 0 1 3.91-1c3 0 4.58 1.76 4.53 4.51 0 2-.07 5.85 0 7.1 0 .67.25 1.12-.89 1.12-.92 0-.94-1-.8-1.94h-.11a5.76 5.76 0 0 1-4 1.94 3.52 3.52 0 0 1-3.91-3.72c0-2.26 1.7-3.68 4.4-3.73m-.11 6.05a4.19 4.19 0 0 0 3.71-2.12v-2.06a9.41 9.41 0 0 0-3.15-.51c-1.74 0-3 .83-3 2.32a2.26 2.26 0 0 0 2.5 2.37M112.82 51.48c0-.38-.2-.94.18-1.09a3.06 3.06 0 0 1 .69-.09c.85 0 .92.94.8 2.1h.13a4.24 4.24 0 0 1 3.78-2.1c2.86 0 4.78 2.63 4.78 6.61 0 3.73-2.17 6.12-4.71 6.12a4.11 4.11 0 0 1-3.8-2.32h-.16v4.64c0 .74-.22.8-.67.8h-.49c-.49 0-.69-.2-.67-.78 0-.42.2-10.27.11-13.89m5.34 10.07c1.7 0 3.21-1.5 3.21-4.6s-1.34-5.18-3.46-5.18a3.64 3.64 0 0 0-3.4 3.89v2.72c.2.65 1.3 3.17 3.64 3.17M130.4 50.29a4.44 4.44 0 0 1 4.69 4.44c0 1.94-.4 2.08-1.05 2.08h-7.32v.07c0 2.46 1.18 4.69 4 4.69a5.7 5.7 0 0 0 3.42-1.21 1 1 0 0 1 .47.49.83.83 0 0 1-.22 1.05 6.21 6.21 0 0 1-3.75 1.1c-4 0-5.72-2.75-5.72-6.43s2.05-6.3 5.47-6.3m2.9 5.22v-.78a2.78 2.78 0 0 0-3-3 3.73 3.73 0 0 0-3.62 3.75zM137.66 59.87v-6.92-1.43c0-.74-.09-1.23.78-1.23s1 .47.92 2.28h.18a3.29 3.29 0 0 1 3.08-2.28 2.52 2.52 0 0 1 2.73 2.77c0 .94-.29 1.23-1.14 1.23s-.6-.27-.6-1a1.42 1.42 0 0 0-1.52-1.56c-1.5 0-2.52 2.17-2.66 3.48 0 1.79-.07 4.4 0 6.41 0 .56.22 1.14-.58 1.14h-.56c-.58 0-.67-.47-.65-1v-1.88M147.44 47.57c0-1 .45-1.21 1.07-1.21s1.14.13 1.16 1.21-.47 1.16-1.07 1.16-1.14-.11-1.16-1.16m.16 11.88V51.5c0-.49-.13-1 .76-1s1.07.16 1 .8c-.11 2.93-.07 6.65-.07 8.49v1.85c0 .71 0 1.14-.6 1.14h-.54c-.67 0-.69-.51-.67-1.07s0-1.39 0-2.28M152.86 59.45v-8.17c0-.53-.18-1 .71-1s1.1.54 1.1 1.14v1.16h.16a4.6 4.6 0 0 1 4-2.3c3 0 4.44 1.9 4.42 4.8 0 1.83-.09 4.38-.09 6.88 0 .51.2 1-.74 1s-1.07-.47-1.07-.87c0-2.17.07-4.51.07-7.08 0-1.83-.94-3.31-2.88-3.31a4.48 4.48 0 0 0-3.93 3v6.95c0 .6 0 1.12-.6 1.12h-.58c-.65 0-.65-.62-.62-1s.07-1.41.07-2.3M166.35 47.88c0-.56 0-.94.74-.94.94 0 1.07.42 1.07 1s-.07 3.62-.11 4.73h.18a4.44 4.44 0 0 1 4.18-2.37c2.48 0 4.13 1.59 4.13 3.73 0 2.9-3.15 3.68-3.15 3.68.33.69 1.94 2.84 2.93 4.18a4.57 4.57 0 0 0 .47.56s-.18.58-1.07.58a1.45 1.45 0 0 1-1.25-.6c-.69-.87-2.34-3.86-3.19-5.16l.18-.33c1.56-.09 3.28-.92 3.28-2.84a2.43 2.43 0 0 0-2.59-2.37c-2.79 0-4.09 2.55-4.09 5.16v4.78c0 .45.2 1.14-.58 1.14h-.56c-.67 0-.67-.51-.67-1.05 0-1.18.11-13.53.11-13.87M183.77 50.29a4.44 4.44 0 0 1 4.69 4.44c0 1.94-.4 2.08-1 2.08h-7.33v.07c0 2.46 1.18 4.69 4 4.69a5.7 5.7 0 0 0 3.42-1.21 1 1 0 0 1 .47.49.83.83 0 0 1-.22 1.05A6.22 6.22 0 0 1 184 63c-4 0-5.72-2.75-5.72-6.43s2.06-6.3 5.47-6.3m2.9 5.22v-.78a2.78 2.78 0 0 0-3-3 3.73 3.73 0 0 0-3.62 3.75zM191 59.87v-6.92-1.43c0-.74-.09-1.23.78-1.23s1 .47.92 2.28h.18a3.29 3.29 0 0 1 3.12-2.28 2.52 2.52 0 0 1 2.73 2.77c0 .94-.29 1.23-1.14 1.23s-.6-.27-.6-1a1.42 1.42 0 0 0-1.52-1.56c-1.5 0-2.52 2.17-2.66 3.48 0 1.79-.07 4.4 0 6.41 0 .56.22 1.14-.58 1.14h-.56c-.58 0-.67-.47-.65-1v-1.88M203.78 55.52a10.18 10.18 0 0 1 3.55.65V54.8c0-2-1.16-2.93-3-2.93a6.92 6.92 0 0 0-3.6 1c-.07 0-.92-1-.13-1.63a6.51 6.51 0 0 1 3.91-1c3 0 4.58 1.76 4.53 4.51 0 2-.07 5.85 0 7.1 0 .67.25 1.12-.89 1.12-.92 0-.94-1-.8-1.94h-.11a5.76 5.76 0 0 1-4 1.94 3.52 3.52 0 0 1-3.84-3.77c0-2.26 1.7-3.68 4.4-3.73m-3.06-7.93c0-1 .45-1.14 1.07-1.14s1.12.11 1.16 1.14-.47 1.14-1.07 1.14-1.14-.11-1.16-1.14m2.95 14a4.18 4.18 0 0 0 3.64-2.12v-2.03a9.41 9.41 0 0 0-3.15-.51c-1.74 0-3 .83-3 2.32a2.25 2.25 0 0 0 2.5 2.37m2.63-14c0-1 .45-1.14 1.09-1.14s1.12.11 1.14 1.14-.47 1.14-1.07 1.14-1.14-.11-1.16-1.14M211.8 64.47a3.68 3.68 0 0 0 1.76.45c1.18 0 1.85-.85 2.5-3.1h-.45a.82.82 0 0 1-.91-.65c-.4-1.16-3.86-8.93-4.2-9.74-.16-.42-.27-.91.38-.91h.49c.67 0 .71.25.87.67.29.74 3.28 7.7 4 9.62h.13c.67-2.19 2.39-7.95 2.86-9.58.13-.45.18-.71.83-.71h.63c.6 0 .56.38.4.89-.43 1.45-2.57 8-3.35 10.54-.87 2.77-1.76 4.42-4.15 4.42a4.89 4.89 0 0 1-2.23-.47c-.45-.22-.4-.36-.34-.69l.13-.51c.09-.38.36-.36.63-.22M222.81 60.43a5.09 5.09 0 0 0 3.33 1.14c1.81 0 3.15-.72 3.15-2.08 0-1-1-1.52-2.19-1.9l-2.1-.71c-1.88-.65-2.79-1.5-2.79-3.17 0-1.94 1.63-3.42 4.47-3.42 2.57 0 3.46.8 3.68 1.16a1.1 1.1 0 0 1-.38 1.32 5.53 5.53 0 0 0-3.31-1c-1.41 0-2.7.63-2.7 1.94 0 .83.6 1.32 1.74 1.7l2 .67c2.19.74 3.24 1.5 3.24 3.3 0 2.08-1.63 3.64-4.87 3.64-2.5 0-3.64-.85-3.75-1.5a1.18 1.18 0 0 1 .43-1.09" transform="translate(12.24 13.08)"/></g></svg>