<?xml version="1.0" encoding="utf-8"?>
<!-- Generator: Adobe Illustrator 21.1.0, SVG Export Plug-In . SVG Version: 6.00 Build 0)  -->
<svg version="1.1" id="Layer_1" xmlns="http://www.w3.org/2000/svg" xmlns:xlink="http://www.w3.org/1999/xlink" x="0px" y="0px"
	 viewBox="0 0 1600 732" style="enable-background:new 0 0 1600 732;" xml:space="preserve">
<style type="text/css">
	.st0{clip-path:url(#SVGID_2_);}
	.st1{fill:#FFFFFF;}
</style>
<g>
	<defs>
		<rect id="SVGID_1_" width="1600" height="732"/>
	</defs>
	<clipPath id="SVGID_2_">
		<use xlink:href="#SVGID_1_"  style="overflow:visible;"/>
	</clipPath>
	<g class="st0">
		<path class="st1" d="M-150.9,446.8L11.6,387c94.1-34.6,148.9-34,191.6,82c42.7,115.9,0.4,154-92.7,188.3
			c-33.7,12.4-46.6,17.1-65.4,24.1l34.8,94.6l-96.6,35.5L-150.9,446.8z M82.7,580.2c21.3-7.8,44.4-18.6,23.8-74.6
			s-45.9-48.4-66.7-40.7c-16.4,6-65.4,24.1-65.4,24.1l42.5,115.4C37.6,596.8,70.8,584.6,82.7,580.2z"/>
		<path class="st1" d="M362.3,672l-98.1,36.1l7.6-419.7l89.7-33l277.8,314.6L536.2,608l-36.9-43.8L362,614.7L362.3,672z
			 M361.6,401.1l0.1,127.1l81.8-30.1L361.6,401.1z"/>
		<path class="st1" d="M525.4,197.9l162.5-59.8c94.1-34.6,148.9-34,191.6,82c42.7,115.9,0.4,154-92.7,188.3
			c-33.7,12.4-46.6,17.1-65.4,24.1l34.8,94.6l-96.6,35.5L525.4,197.9z M759,331.4c21.3-7.8,44.4-18.6,23.8-74.6
			c-20.6-56-45.9-48.4-66.7-40.7c-16.4,6-65.4,24.1-65.4,24.1l42.5,115.4C713.9,347.9,747.1,335.7,759,331.4z"/>
		<path class="st1" d="M854.4,76.9l261.1-96.1l30.8,83.7l-164,60.3l20.6,56l132.3-48.7l30.8,83.7l-132.3,48.7l22.1,60l164-60.3
			l29.9,81.3l-261.1,96.1L854.4,76.9z"/>
		<path class="st1" d="M1612.4,212l-110.5,40.7l-106-74.1c-11.9,4.4-39.1,14.4-53,19.5l36.6,99.6l-96.1,35.4L1149.2-31.6l157.6-58
			c94.1-34.6,148-36.5,190.7,79.5c26.4,71.8,18,107-14.7,131.4L1612.4,212z M1376,98.7c31.7-11.7,41.3-27,24.7-72.1
			c-17.1-46.6-36.6-49-65.8-38.2c-16.4,6-60.9,22.4-60.9,22.4l40.7,110.5C1335.4,113.7,1364.1,103.1,1376,98.7z"/>
		<path class="st1" d="M1500.5-160.8l97.6-35.9l134.2,364.7l-97.6,35.9L1500.5-160.8z"/>
		<path class="st1" d="M1641.2-212.6l97.6-35.9l204,138.7l-69.3-188.3l93.2-34.3l134.2,364.7l-82.2,30.3L1790.3-94.8l78.2,212.6
			l-93.2,34.3L1641.2-212.6z"/>
		<path class="st1" d="M2221.9-426.3l106-39l-82.1,201.8L2473-104.6l-113.5,41.7l-152.1-106.1c0,0-10.7,25.9-10.5,26.4l45.2,122.9
			L2144,16.4l-134.2-364.7l98.1-36.1l46.1,125.4L2221.9-426.3z"/>
		<path class="st1" d="M2363.6-478.4l261.1-96.1l30.8,83.7l-164,60.3l20.6,56l132.3-48.7l30.8,83.7l-132.3,48.7l22.1,60l164-60.3
			l29.9,81.3l-261.1,96.1L2363.6-478.4z"/>
		<path class="st1" d="M3121.6-343.3l-110.5,40.7l-106-74.1c-11.9,4.4-39.1,14.4-53,19.5l36.6,99.6l-96.1,35.4l-134.2-364.7
			l157.6-58c94.1-34.6,148-36.5,190.7,79.5c26.4,71.8,18,107-14.7,131.4L3121.6-343.3z M2885.2-456.6c31.7-11.7,41.3-27,24.7-72.1
			c-17.1-46.6-36.6-49-65.8-38.2c-16.4,6-60.9,22.4-60.9,22.4l40.7,110.5C2844.6-441.6,2873.4-452.2,2885.2-456.6z"/>
		<path class="st1" d="M3013.2-717.4l85.7-31.5l29.4,79.8l-85.7,31.5L3013.2-717.4z M3230.1-383.2l-98.1,36.1l7.6-419.7l89.7-33
			l277.8,314.6L3404-447.2l-36.9-43.8l-137.2,50.5L3230.1-383.2z M3229.4-654.1l0.1,127.1l81.8-30.1L3229.4-654.1z M3271.8-812.6
			l85.7-31.5l29.4,79.8l-85.7,31.5L3271.8-812.6z"/>
		<path class="st1" d="M3604.2-655.3l-230.3-194.8l105.5-38.8l140,119l29.5-181.3l100.6-37L3700.6-693l44.3,120.4l-97.1,35.7
			L3604.2-655.3z"/>
		<path class="st1" d="M3879.2-631l-14.7-85.7c13-1.4,93.7-20.4,126.9-32.6c46.1-17,52.2-24.8,42.9-50.1
			c-8.9-24.3-16.6-23.7-77.4-13.1c-112.5,20-141.4,13.2-172.6-71.5c-30.6-83.2,13.3-127.5,100.5-159.6
			c42.1-15.5,119.2-35.4,139.7-36.2l14.9,86.2c-31.9,6.7-80.5,16.7-124.6,32.9c-35.2,12.9-39.4,22.9-32.1,42.7
			c9.1,24.8,16.6,23.7,70.4,14c120.4-21.2,148.6-18.1,180.7,69.1c30.3,82.2-4.6,126.6-113.6,166.7
			C3956.3-644.8,3895.9-633.2,3879.2-631z"/>
	</g>
</g>
</svg>
