<svg id="Layer_1" xmlns="http://www.w3.org/2000/svg" xmlns:xlink="http://www.w3.org/1999/xlink" viewBox="0 0 34.3 40"><style>.st0{clip-path:url(#SVGID_2_);fill:#6d6e70}</style><defs><path id="SVGID_1_" d="M0 0h34.3v40H0z"/></defs><clipPath id="SVGID_2_"><use xlink:href="#SVGID_1_" overflow="visible"/></clipPath><path class="st0" d="M27.6 26.9c.1.1.1.1 0 0 0 .1-.2.1-.4.1-.7 0-1.7-.2-2.8-.6 2.5 0 3.1.4 3.2.5m-14.4.4c.3-.6.7-1.2 1-1.9.8-1.6 1.4-3 1.9-4.4.8 1.6 1.7 3 2.8 3.9.2.2.4.3.6.5-2.1.5-4.3 1.1-6.3 1.9M16 12.5c.2.1.3.3.3.7v.1c0 .1-.1.1-.1.2 0 .3-.1.6-.2 1 0 .3-.1.6-.2 1 0-1.3 0-2.3.2-3M7.1 33.1c.3-.8 1.4-2.2 3.1-3.5-1.5 2.2-2.4 3.2-3.1 3.5M20 23.9c-1.3-1.1-2.5-3-3.3-5.3.3-1.5.3-2.9.3-4.3v-.7-.2s.1-.1.1-.2c.1-.7.1-1.2-.2-1.5-.2-.2-.4-.3-.8-.3h-.5c-.4 0-.8.3-.9.9-.4 1.5-.2 4 .5 6.4-.5 1.9-1.3 3.8-2.3 5.8-.9 1.8-1.7 3.3-2.4 4.4v-.1c-.1-.2-.3-.2-.5-.1-2.8 1.5-4 3.2-4.2 4.2-.1.4 0 .7.1.8l.1.1.5.3c.2.1.4.2.6.2 1.3 0 3.1-1.9 5.4-5.8 2.4-.8 5.6-1.5 8.8-1.9 1.9 1 4 1.6 5.5 1.6 1.2 0 1.5-.4 1.6-.8 0 0 0-.1.1-.1.2-.5.1-.9 0-1.2-.6-.9-2.5-1.1-4-1.1-.8 0-1.7 0-2.6.2-.8-.4-1.4-.8-1.9-1.3m11.4 13.2H2.9V2.9H20v9.3c0 1.2 1 2.1 2.1 2.1h9.3v22.8zM22.9 3c.4.1.8.3.9.5l7 7c.2.2.4.5.5.9h-8.4V3zm9.9 5.5l-7-7C25 .7 23.3 0 22.1 0h-20C1 0 0 1 0 2.1v35.7C0 39 1 40 2.1 40h30c1.2 0 2.1-1 2.1-2.1V12.1c.1-1.1-.6-2.8-1.4-3.6"/></svg>