<?xml version="1.0" encoding="utf-8"?>
<!-- Generator: Adobe Illustrator 21.0.2, SVG Export Plug-In . SVG Version: 6.00 Build 0)  -->
<svg version="1.1" id="Layer_1" xmlns="http://www.w3.org/2000/svg" xmlns:xlink="http://www.w3.org/1999/xlink" x="0px" y="0px"
	 viewBox="0 0 34.3 40" style="enable-background:new 0 0 34.3 40;" xml:space="preserve">
<style type="text/css">
	.st0{clip-path:url(#SVGID_2_);fill:#6D6E70;}
</style>
<g>
	<defs>
		<rect id="SVGID_1_" width="34.3" height="40"/>
	</defs>
	<clipPath id="SVGID_2_">
		<use xlink:href="#SVGID_1_"  style="overflow:visible;"/>
	</clipPath>
	<path class="st0" d="M27.6,26.9C27.7,27,27.7,27,27.6,26.9c0,0.1-0.2,0.1-0.4,0.1c-0.7,0-1.7-0.2-2.8-0.6
		C26.9,26.4,27.5,26.8,27.6,26.9 M13.2,27.3c0.3-0.6,0.7-1.2,1-1.9c0.8-1.6,1.4-3,1.9-4.4c0.8,1.6,1.7,3,2.8,3.9
		c0.2,0.2,0.4,0.3,0.6,0.5C17.4,25.9,15.2,26.5,13.2,27.3 M16,12.5C16,12.5,16,12.5,16,12.5c0.2,0.1,0.3,0.3,0.3,0.7
		c0,0,0,0.1,0,0.1c0,0.1-0.1,0.1-0.1,0.2c0,0.3-0.1,0.6-0.2,1c0,0.3-0.1,0.6-0.2,1C15.8,14.2,15.8,13.2,16,12.5 M7.1,33.1
		c0.3-0.8,1.4-2.2,3.1-3.5C8.7,31.8,7.8,32.8,7.1,33.1 M20,23.9c-1.3-1.1-2.5-3-3.3-5.3c0.3-1.5,0.3-2.9,0.3-4.3v-0.7
		c0-0.1,0-0.1,0-0.2c0,0,0.1-0.1,0.1-0.2c0.1-0.7,0.1-1.2-0.2-1.5c-0.2-0.2-0.4-0.3-0.8-0.3h0h-0.5c-0.4,0-0.8,0.3-0.9,0.9
		c-0.4,1.5-0.2,4,0.5,6.4c-0.5,1.9-1.3,3.8-2.3,5.8c-0.9,1.8-1.7,3.3-2.4,4.4c0,0,0-0.1,0-0.1c-0.1-0.2-0.3-0.2-0.5-0.1
		c-2.8,1.5-4,3.2-4.2,4.2c-0.1,0.4,0,0.7,0.1,0.8c0,0,0.1,0.1,0.1,0.1l0.5,0.3c0.2,0.1,0.4,0.2,0.6,0.2c1.3,0,3.1-1.9,5.4-5.8
		c2.4-0.8,5.6-1.5,8.8-1.9c1.9,1,4,1.6,5.5,1.6c1.2,0,1.5-0.4,1.6-0.8v0c0,0,0-0.1,0.1-0.1c0.2-0.5,0.1-0.9,0-1.2
		c-0.6-0.9-2.5-1.1-4-1.1c-0.8,0-1.7,0-2.6,0.2C21.1,24.8,20.5,24.4,20,23.9 M31.4,37.1H2.9V2.9H20v9.3c0,1.2,1,2.1,2.1,2.1h9.3
		V37.1z M22.9,3c0.4,0.1,0.8,0.3,0.9,0.5l7,7c0.2,0.2,0.4,0.5,0.5,0.9h-8.4V3z M32.8,8.5l-7-7C25,0.7,23.3,0,22.1,0h-20
		C1,0,0,1,0,2.1v35.7C0,39,1,40,2.1,40h30c1.2,0,2.1-1,2.1-2.1V12.1C34.3,11,33.6,9.3,32.8,8.5"/>
</g>
</svg>
