<svg id="Layer_1" xmlns="http://www.w3.org/2000/svg" xmlns:xlink="http://www.w3.org/1999/xlink" viewBox="0 0 40 40"><style>.st0{clip-path:url(#SVGID_2_);fill:#fff}</style><defs><path id="SVGID_1_" d="M0 0h40v40H0z"/></defs><clipPath id="SVGID_2_"><use xlink:href="#SVGID_1_" overflow="visible"/></clipPath><path class="st0" d="M40 20C40 9 31 0 20 0S0 9 0 20s9 20 20 20 20-9 20-20m-5.8 0c0 7.8-6.4 14.2-14.2 14.2S5.8 27.8 5.8 20 12.2 5.8 20 5.8 34.2 12.2 34.2 20m-3.4 0c0-.6-.3-1.1-.8-1.4l-14.2-8.3c-.5-.3-1.1-.3-1.7 0-.5.3-.8.9-.8 1.5v16.7c0 .6.3 1.1.8 1.5.3.1.5.2.8.2s.6-.1.8-.2L30 21.4c.5-.3.8-.8.8-1.4"/></svg>